<svg width="272" height="241" viewBox="0 0 272 241" fill="none" xmlns="http://www.w3.org/2000/svg">
<path d="M45.1875 0C50.6006 0 55.2605 3.85506 56.2961 9.18342L57.0021 15.0625H255.027C264.582 15.0625 272.208 24.5942 269.525 34.2013L244.107 124.595C242.271 131.091 236.34 135.562 229.609 135.562H80.349L84.6795 158.156H229.703C235.963 158.156 241 163.193 241 169.453C241 175.713 235.963 180.75 229.703 180.75H74.8889C69.8994 180.75 65.2395 176.89 64.2039 171.571L35.8393 22.5938H11.2969C5.06006 22.5938 0 17.5337 0 11.2969C0 5.06006 5.06006 0 11.2969 0H45.1875ZM60.25 218.406C60.25 205.933 70.3701 195.812 82.8438 195.812C95.3174 195.812 105.438 205.933 105.438 218.406C105.438 230.88 95.3174 241 82.8438 241C70.3701 241 60.25 230.88 60.25 218.406ZM241 218.406C241 230.88 230.88 241 218.406 241C205.933 241 195.812 230.88 195.812 218.406C195.812 205.933 205.933 195.812 218.406 195.812C230.88 195.812 241 205.933 241 218.406Z" fill="#8E8E8E"/>
</svg>
