<svg width="412" height="206" viewBox="0 0 412 206" fill="none" xmlns="http://www.w3.org/2000/svg">
<path d="M223.52 120.13L221.92 119.3C216.45 116.54 210.92 114.45 204.83 113.89V60.4201H231.37C239.66 60.4201 241.37 62.9101 241.37 73.6901H242.2V46.3201H241.37C241.37 57.1001 239.71 59.5901 231.37 59.5901H204.83V1.53006H241.32C249.62 1.53006 251.32 4.02006 251.32 13.9701H252.14V0.700073H178.29V1.53006C180.29 1.53006 182.04 1.59007 183.52 1.74007C184.402 1.82245 185.278 1.96613 186.14 2.17006C186.479 2.24663 186.813 2.34348 187.14 2.46007L187.33 2.53006C187.58 2.63006 187.82 2.73007 188.05 2.84007L188.23 2.93007C188.462 3.05599 188.686 3.19626 188.9 3.35007L188.99 3.40007C189.22 3.5774 189.438 3.77124 189.64 3.98007C189.813 4.16327 189.97 4.36062 190.11 4.57007C190.159 4.63283 190.203 4.69975 190.24 4.77007C190.352 4.94671 190.452 5.13044 190.54 5.32007L190.66 5.57007C190.754 5.77804 190.834 5.99181 190.9 6.21007C190.931 6.28511 190.958 6.36191 190.98 6.44006C191.07 6.75006 191.15 7.07006 191.22 7.44006L151.37 68.1301L150.53 67.7401C147.674 66.4706 144.746 65.3721 141.76 64.4501C138.833 63.5411 135.815 62.9543 132.76 62.7001C129.897 62.4205 127.011 62.4742 124.16 62.8601C121.628 63.1779 119.13 63.7302 116.7 64.5101C114.669 65.1521 112.682 65.9237 110.75 66.8201C109.05 67.6501 107.58 68.4201 106.42 69.0801C104.14 70.5001 102.86 71.3401 102.86 71.3401C102.86 71.3401 104.31 70.8501 106.86 69.9101C108.13 69.4801 109.68 69.0301 111.41 68.4801C113.14 67.9301 115.18 67.4801 117.41 67.1001C119.752 66.6671 122.121 66.3997 124.5 66.3001C127.125 66.2207 129.751 66.3713 132.35 66.7501C135.129 67.1658 137.863 67.8353 140.52 68.7501C143.32 69.6664 146.062 70.7517 148.73 72.0001L148.88 72.0601L119.76 116.35C118.03 118.68 112.22 119.3 105.68 119.3V120.13H131.73V119.3C125.73 119.3 122.37 118.77 120.5 116.92L149.74 72.4501L157.01 75.7201C159.752 76.9715 162.571 78.047 165.45 78.9401C168.187 79.8205 171.015 80.3875 173.88 80.6301C175.21 80.7519 176.545 80.7953 177.88 80.7601C179.123 80.699 180.361 80.5721 181.59 80.3801C183.721 80.0542 185.812 79.5079 187.83 78.7501C189.142 78.2945 190.419 77.743 191.65 77.1001V109.35C191.776 111.442 191.435 113.536 190.65 115.48C187.518 116.449 184.482 117.704 181.58 119.23L179.91 120.13C179.52 120.34 179.14 120.54 178.76 120.77C179.31 120.54 179.85 120.33 180.39 120.13C181.39 119.75 182.44 119.41 183.44 119.13C184.98 118.661 186.546 118.284 188.13 118C193.705 116.997 199.441 117.385 204.83 119.13L205.37 119.3C206.14 119.56 206.91 119.84 207.67 120.13C231.26 129.36 249.67 157.5 309.17 129.13C264.53 150.45 244.32 131.13 223.52 120.13ZM187.27 77.0401C186.328 77.2508 185.372 77.3944 184.41 77.4701C183.366 77.6184 182.314 77.6986 181.26 77.7101C178.915 77.7804 176.569 77.6062 174.26 77.1901C171.678 76.7069 169.145 75.9941 166.69 75.0601C164.1 74.1201 161.5 72.8801 158.8 71.6401L152.24 68.5401L191.47 8.88007C191.47 8.94007 191.47 9.00006 191.47 9.06006C191.47 9.39006 191.53 9.73006 191.54 10.0601C191.55 10.3901 191.54 10.9701 191.54 11.4601V75.9701C190.34 76.3301 188.93 76.7501 187.27 77.0401Z" fill="white"/>
<path d="M27.08 205.05V203.94H27.48C29.25 203.94 30.36 203.65 30.78 203.08C30.924 202.798 30.999 202.486 30.999 202.17C30.999 201.854 30.924 201.542 30.78 201.26L27.17 190.44H10.35L7.09 200.81C6.72 202.01 6.69 202.73 7 203.15C7.31 203.57 8.47999 203.94 10.43 203.94H10.83V205.05H0V203.94H0.399994C4.32999 203.94 5.12 203.47 6.03 200.57L17.69 163.43C17.7685 163.262 17.8041 163.077 17.7936 162.892C17.7831 162.707 17.7269 162.528 17.63 162.37C17.35 161.98 16.51 161.52 14.09 161.52H13.69V160.42H22.91L36.29 200.56C37.08 202.94 38.07 203.94 42.1 203.94H42.5V205.05H27.08ZM26.82 189.33L18.52 164.41L10.69 189.33H26.82Z" fill="white"/>
<path d="M42.09 204.34V204.65H27.48V204.34C31.17 204.34 31.82 203.15 31.18 201.13L27.48 190.04H10.05L6.70999 200.69C5.87999 203.35 6.47999 204.34 10.43 204.34V204.65H0.429993V204.34C4.37999 204.34 5.42999 203.85 6.42999 200.69L18.08 163.55C18.58 162.02 17.52 161.12 14.08 161.12V160.82H22.61L35.9 200.69C36.81 203.42 38.13 204.34 42.09 204.34ZM27.38 189.73L18.5 163.13L10.15 189.75L27.38 189.73Z" fill="white"/>
<path d="M101.19 205.05V203.94H101.59C103.37 203.94 104.48 203.65 104.89 203.08C105.034 202.798 105.109 202.486 105.109 202.17C105.109 201.854 105.034 201.542 104.89 201.26L101.29 190.44H84.46L81.21 200.81C80.83 202.01 80.8 202.73 81.11 203.15C81.42 203.57 82.6 203.94 84.55 203.94H84.95V205.05H74.11V203.94H74.51C78.44 203.94 79.23 203.47 80.14 200.57L91.8 163.43C91.8744 163.261 91.9069 163.076 91.8947 162.891C91.8826 162.707 91.826 162.528 91.73 162.37C91.45 161.98 90.61 161.52 88.2 161.52H87.8V160.42H97L110.38 200.56C111.18 202.95 112.16 203.94 116.19 203.94H116.59V205.05H101.19ZM100.94 189.33L92.63 164.41L84.81 189.33H100.94Z" fill="white"/>
<path d="M116.2 204.34V204.65H101.59V204.34C105.29 204.34 105.94 203.15 105.29 201.13L101.59 190.04H84.1701L80.83 200.69C79.99 203.35 80.59 204.34 84.55 204.34V204.65H74.55V204.34C78.5 204.34 79.55 203.85 80.55 200.69L92.2101 163.55C92.7001 162.02 91.6501 161.12 88.2101 161.12V160.82H96.7401L110 200.69C110.92 203.42 112.25 204.34 116.2 204.34ZM101.49 189.73L92.6201 163.13L84.2601 189.75L101.49 189.73Z" fill="white"/>
<path d="M61.5301 205.96C58.4396 206.024 55.3673 205.471 52.4934 204.332C49.6195 203.194 47.0016 201.494 44.7933 199.331C42.585 197.168 40.8305 194.586 39.6328 191.736C38.435 188.886 37.8181 185.826 37.8181 182.735C37.8181 179.644 38.435 176.584 39.6328 173.734C40.8305 170.884 42.585 168.302 44.7933 166.139C47.0016 163.976 49.6195 162.276 52.4934 161.138C55.3673 159.999 58.4396 159.446 61.5301 159.51C68.9701 159.51 73.1001 164.92 74.5301 167.25C74.5901 167.35 74.6501 167.42 74.6901 167.48C74.8069 166.786 74.8538 166.083 74.83 165.38V164.98H75.9301V175.52H74.83V175.13C74.83 171.13 74.1501 168.61 72.4901 166.33C71.2326 164.582 69.5818 163.155 67.671 162.163C65.7602 161.171 63.6429 160.643 61.4901 160.62C51.9601 160.62 44.2001 170.54 44.2001 182.74C44.2001 194.94 51.9601 204.86 61.4901 204.86C65.0358 204.944 68.4811 203.678 71.1301 201.32V191.57C71.1301 188.8 70.4701 188.32 66.6601 188.32H66.2601V187.21H81.6701V188.32H81.2701C77.4701 188.32 76.8 188.8 76.8 191.57V201.52L76.1601 201.01C75.8196 200.738 75.3955 200.594 74.9601 200.6C73.7492 200.759 72.6317 201.336 71.8 202.23C68.9589 204.706 65.2979 206.035 61.5301 205.96Z" fill="white"/>
<path d="M81.31 187.6V187.91C77.36 187.91 76.44 188.51 76.44 191.56V200.69C74.87 199.46 72.92 200.69 71.57 201.92C68.8028 204.33 65.2392 205.628 61.57 205.56C58.5324 205.624 55.5126 205.08 52.6877 203.962C49.8628 202.843 47.2895 201.172 45.1188 199.046C42.948 196.921 41.2234 194.383 40.0461 191.582C38.8687 188.781 38.2622 185.773 38.2622 182.735C38.2622 179.697 38.8687 176.689 40.0461 173.888C41.2234 171.087 42.948 168.55 45.1188 166.424C47.2895 164.298 49.8628 162.627 52.6877 161.508C55.5126 160.39 58.5324 159.846 61.57 159.91C68.91 159.91 72.86 165.23 74.23 167.46C74.79 168.3 75.23 168.68 75.23 165.38H75.53V175.13H75.23C75.23 171.19 74.58 168.52 72.82 166.13C71.5255 164.339 69.8308 162.875 67.8708 161.854C65.9108 160.833 63.7396 160.284 61.53 160.25C51.61 160.25 43.84 170.6 43.84 182.77C43.84 194.94 51.61 205.29 61.53 205.29C65.2204 205.355 68.7967 204.01 71.53 201.53V191.6C71.53 188.55 70.62 187.95 66.66 187.95V187.64L81.31 187.6Z" fill="white"/>
<path d="M153.18 205.05C146.66 205.05 142.43 201.36 140.61 194.05C138.61 186.19 135.44 183.39 133.09 183.39H127.09V200.64C127.09 203.41 127.76 203.9 131.56 203.9H131.96V205H116.56V203.9H116.96C120.76 203.9 121.43 203.41 121.43 200.64V164.77C121.43 162.01 120.76 161.52 116.96 161.52H116.56V160.41H133.09C139.24 160.41 148.4 163.56 148.4 172.22C148.4 177.63 143.78 181.93 136.95 183.11C139.238 183.941 141.278 185.338 142.879 187.171C144.481 189.003 145.593 191.212 146.11 193.59C147.39 198.74 150.11 203.94 153.18 203.94H153.58V205.05H153.18ZM133.09 182.33C137.87 182.33 142.73 177.23 142.73 172.22C142.73 164.13 136.23 161.52 133.09 161.52H127.09V182.33H133.09Z" fill="white"/>
<path d="M153.18 204.34V204.65C149.81 204.65 143.44 203.73 141 193.99C139 185.83 135.6 182.99 133.09 182.99H126.7V200.64C126.7 203.69 127.61 204.3 131.57 204.3V204.6H117V204.3C121 204.3 121.87 203.69 121.87 200.64V164.77C121.87 161.77 120.95 161.12 117 161.12V160.81H133.13C139.52 160.81 148.04 164.16 148.04 172.22C148.04 178 142.59 182.33 135.04 182.95C137.664 183.533 140.068 184.853 141.967 186.756C143.866 188.659 145.182 191.065 145.76 193.69C146.93 198.56 149.61 204.34 153.18 204.34ZM133.09 182.73C138.26 182.73 143.09 177.25 143.09 172.22C143.09 164.16 136.7 161.12 133.09 161.12H126.7V182.73H133.09Z" fill="white"/>
<path d="M175.4 205.05V203.94H175.8C179.6 203.94 180.27 203.45 180.27 200.69V164.77C180.27 162.01 179.6 161.52 175.8 161.52H175.4V160.42H203.29V166.13H202.18V165.73C202.18 162.22 201.67 161.56 198.93 161.56H185.93V182.03H195.27C198.04 182.03 198.52 181.36 198.52 177.56V177.13H199.63V187.97H198.52V187.57C198.52 183.77 198.04 183.1 195.27 183.1H185.93V203.91H199.84C202.57 203.91 203.09 203.25 203.09 199.74V199.34H204.19V205.02L175.4 205.05Z" fill="white"/>
<path d="M203.8 199.77V204.65H175.8V204.34C179.8 204.34 180.67 203.73 180.67 200.69V164.77C180.67 161.77 179.76 161.12 175.8 161.12V160.82H202.89V165.69H202.58C202.58 162.03 201.98 161.12 198.93 161.12H185.54V182.43H195.28C198.33 182.43 198.93 181.51 198.93 177.56H199.24V187.56H198.93C198.93 183.56 198.33 182.69 195.28 182.69H185.54V204.3H199.85C202.85 204.3 203.5 203.39 203.5 199.73L203.8 199.77Z" fill="white"/>
<path d="M220 205.96C214.88 205.96 210.55 203.9 208.12 200.3L208 200.13C207.857 199.9 207.7 199.68 207.53 199.47C207.397 200.175 207.347 200.893 207.38 201.61V202.01H206.27V191.46H207.38V191.86C207.38 195.8 208.12 198.5 209.77 200.6C212.01 203.26 215.85 204.85 220.03 204.85C226.47 204.85 230.62 200.71 230.62 194.3C230.62 187.89 225.14 185.38 219.33 182.64C213.52 179.9 207.75 177.18 207.49 170.57C207.424 169.267 207.629 167.965 208.09 166.745C208.551 165.525 209.259 164.414 210.17 163.48C211.566 162.146 213.216 161.104 215.021 160.417C216.826 159.73 218.75 159.412 220.68 159.48C222.544 159.437 224.388 159.875 226.034 160.75C227.68 161.626 229.074 162.91 230.08 164.48C230.194 164.666 230.321 164.843 230.46 165.01C230.602 164.323 230.656 163.621 230.62 162.92V162.52H231.73V173.13H230.62V172.73C230.62 168.84 229.79 165.73 228.27 164.03C227.36 162.986 226.241 162.146 224.985 161.564C223.729 160.981 222.364 160.67 220.98 160.65C219.753 160.596 218.528 160.797 217.381 161.239C216.235 161.681 215.193 162.356 214.32 163.22C213.595 163.999 213.037 164.918 212.681 165.921C212.325 166.923 212.179 167.988 212.25 169.05C212.5 173.76 217.46 175.96 222.71 178.28C229.21 181.15 236.59 184.41 236.3 193.23C236.01 202.05 227.63 205.96 220 205.96Z" fill="white"/>
<path d="M235.89 193.13C235.6 201.57 227.6 205.52 219.99 205.52C214.79 205.52 210.65 203.31 208.44 200.03C207.69 198.9 206.97 197.59 206.97 201.55H206.66V191.81H207C207 195.74 207.72 198.57 209.47 200.81C212.02 203.81 216.15 205.21 220.05 205.21C226.73 205.21 231.05 200.79 231.05 194.26C231.05 181.21 208.43 183.36 207.92 170.52C207.66 163.92 213.71 159.87 220.71 159.87C222.508 159.822 224.287 160.241 225.875 161.086C227.463 161.931 228.805 163.172 229.77 164.69C230.35 165.58 231.05 166.49 231.05 162.91H231.36V172.65H231C231 168.97 230.28 165.65 228.55 163.65C227.603 162.564 226.438 161.69 225.13 161.085C223.822 160.48 222.401 160.158 220.96 160.14C214.87 160.14 211.58 164.36 211.83 168.96C212.42 180.01 236.4 177.59 235.89 193.13Z" fill="white"/>
<path d="M252.2 205.96C247.15 205.96 242.71 203.84 240.32 200.3L240.2 200.12C240.07 199.92 239.87 199.63 239.73 199.46C239.597 200.165 239.547 200.883 239.58 201.6V202H238.47V191.46H239.58V191.86C239.58 195.8 240.31 198.5 241.96 200.6C244.2 203.26 248.04 204.85 252.23 204.85C258.66 204.85 262.82 200.71 262.82 194.3C262.82 187.89 257.33 185.38 251.53 182.64C245.73 179.9 239.95 177.18 239.69 170.57C239.622 169.268 239.824 167.966 240.283 166.746C240.743 165.526 241.45 164.414 242.36 163.48C243.758 162.148 245.407 161.107 247.212 160.421C249.016 159.734 250.94 159.414 252.87 159.48C254.734 159.437 256.578 159.875 258.224 160.75C259.87 161.626 261.264 162.91 262.27 164.48C262.384 164.666 262.511 164.843 262.65 165.01C262.798 164.324 262.855 163.621 262.82 162.92V162.52H263.92V173.13H262.82V172.73C262.82 168.84 261.98 165.73 260.47 164.03C259.559 162.987 258.44 162.148 257.184 161.565C255.928 160.983 254.564 160.671 253.18 160.65C251.952 160.594 250.727 160.794 249.58 161.236C248.434 161.679 247.392 162.354 246.52 163.22C245.794 163.998 245.235 164.917 244.877 165.92C244.519 166.923 244.371 167.988 244.44 169.05C244.7 173.76 249.65 175.96 254.9 178.28C261.41 181.15 268.78 184.41 268.49 193.23C268.2 202.05 259.84 205.96 252.2 205.96Z" fill="white"/>
<path d="M268.09 193.13C267.81 201.57 259.81 205.52 252.2 205.52C246.99 205.52 242.86 203.31 240.64 200.03C239.88 198.9 239.17 197.59 239.17 201.55H238.86V191.81H239.17C239.17 195.74 239.89 198.57 241.64 200.81C244.18 203.81 248.31 205.21 252.22 205.21C258.89 205.21 263.22 200.79 263.22 194.26C263.22 181.21 240.6 183.36 240.09 170.52C239.83 163.92 245.87 159.87 252.87 159.87C254.669 159.824 256.45 160.243 258.039 161.088C259.628 161.932 260.972 163.173 261.94 164.69C262.51 165.58 263.22 166.49 263.22 162.91H263.52V172.65H263.22C263.22 168.97 262.49 165.65 260.77 163.65C259.823 162.564 258.657 161.691 257.349 161.086C256.041 160.481 254.621 160.159 253.18 160.14C247.09 160.14 243.8 164.36 244.04 168.96C244.63 180.01 268.61 177.59 268.09 193.13Z" fill="white"/>
<path d="M269.33 205.05V203.94H269.74C273.54 203.94 274.2 203.45 274.2 200.69V164.77C274.2 162.01 273.54 161.52 269.74 161.52H269.33V160.42H297.22V166.13H296.12V165.73C296.12 162.22 295.6 161.56 292.87 161.56H279.87V182.03H289.21C291.98 182.03 292.46 181.36 292.46 177.56V177.13H293.57V187.97H292.46V187.57C292.46 183.77 291.98 183.1 289.21 183.1H279.87V203.91H293.78C296.51 203.91 297.03 203.25 297.03 199.74V199.34H298.13V205.02L269.33 205.05Z" fill="white"/>
<path d="M297.73 199.77V204.65H269.73V204.34C273.73 204.34 274.59 203.73 274.59 200.69V164.77C274.59 161.77 273.68 161.12 269.73 161.12V160.82H296.81V165.69H296.51C296.51 162.03 295.9 161.12 292.86 161.12H279.46V182.43H289.2C292.2 182.43 292.86 181.51 292.86 177.56H293.16V187.56H292.86C292.86 183.56 292.25 182.69 289.2 182.69H279.46V204.3H293.77C296.77 204.3 297.42 203.39 297.42 199.73L297.73 199.77Z" fill="white"/>
<path d="M337.46 205.05L305.8 164.61V200.69C305.8 203.45 306.46 203.94 310.27 203.94H310.67V205.05H299.82V203.94H300.22C304.02 203.94 304.69 203.45 304.69 200.69V164.47C304.69 162.11 304.17 161.52 300.22 161.52H299.82V160.42H308.94L337.26 196.72V164.77C337.26 162.01 336.59 161.52 332.79 161.52H332.39V160.42H343.23V161.52H342.83C339.03 161.52 338.36 162.01 338.36 164.77V205.05H337.46Z" fill="white"/>
<path d="M342.83 160.82V161.12C338.83 161.12 337.96 161.73 337.96 164.77V204.65H337.66L305.4 163.45V200.69C305.4 203.69 306.31 204.34 310.27 204.34V204.65H300.27V204.34C304.27 204.34 305.14 203.73 305.14 200.69V164.47C305.14 161.73 304.23 161.12 300.27 161.12V160.82H308.79L337.71 197.88V164.77C337.71 161.77 336.8 161.12 332.84 161.12V160.82H342.83Z" fill="white"/>
<path d="M367.06 205.96C363.969 206.024 360.897 205.471 358.023 204.332C355.149 203.194 352.532 201.494 350.323 199.331C348.115 197.168 346.36 194.586 345.163 191.736C343.965 188.886 343.348 185.826 343.348 182.735C343.348 179.644 343.965 176.584 345.163 173.734C346.36 170.884 348.115 168.302 350.323 166.139C352.532 163.976 355.149 162.276 358.023 161.138C360.897 159.999 363.969 159.446 367.06 159.51C369.454 159.561 371.802 160.176 373.913 161.305C376.025 162.435 377.839 164.047 379.21 166.01C379.31 166.13 379.81 166.86 380.08 167.28C380.121 167.354 380.168 167.424 380.22 167.49C380.33 166.792 380.374 166.086 380.35 165.38V164.98H381.46V175.52H380.35V175.13C380.35 171.18 379.64 168.47 378.03 166.34C376.78 164.584 375.131 163.15 373.219 162.156C371.306 161.161 369.185 160.635 367.03 160.62C357.52 160.62 349.78 170.54 349.78 182.74C349.78 194.94 357.52 204.86 367.03 204.86C373.54 204.86 378.59 201.17 381.27 194.46L381.37 194.21H382.51L382.32 194.75C379.72 201.87 374.15 205.96 367.06 205.96Z" fill="white"/>
<path d="M382 194.6C379.87 200.38 375.09 205.6 367.09 205.6C364.052 205.664 361.033 205.12 358.208 204.002C355.383 202.883 352.81 201.212 350.639 199.086C348.468 196.96 346.743 194.423 345.566 191.622C344.389 188.821 343.782 185.813 343.782 182.775C343.782 179.737 344.389 176.729 345.566 173.928C346.743 171.127 348.468 168.589 350.639 166.464C352.81 164.338 355.383 162.667 358.208 161.548C361.033 160.43 364.052 159.886 367.09 159.95C369.423 159.996 371.711 160.594 373.768 161.696C375.824 162.799 377.59 164.373 378.92 166.29C379.01 166.41 379.51 167.12 379.77 167.54C380.33 168.37 380.77 168.67 380.77 165.42H381.08V175.13H380.77C380.77 171.19 380.06 168.34 378.36 166.13C377.074 164.333 375.382 162.864 373.422 161.842C371.463 160.821 369.29 160.275 367.08 160.25C357.16 160.25 349.43 170.6 349.43 182.77C349.43 194.94 357.16 205.29 367.08 205.29C373.32 205.29 378.75 202.01 381.69 194.64L382 194.6Z" fill="white"/>
<path d="M383.21 205.05V203.94H383.61C387.41 203.94 388.08 203.45 388.08 200.69V164.77C388.08 162.01 387.41 161.52 383.61 161.52H383.21V160.42H411.1V166.13H410V165.73C410 162.22 409.49 161.56 406.75 161.56H393.75V182.03H403.09C405.85 182.03 406.34 181.36 406.34 177.56V177.13H407.45V187.97H406.34V187.57C406.34 183.77 405.85 183.1 403.09 183.1H393.75V203.91H407.65C410.39 203.91 410.91 203.25 410.91 199.74V199.34H412V205.02L383.21 205.05Z" fill="white"/>
<path d="M411.61 199.77V204.65H383.61V204.34C387.56 204.34 388.48 203.73 388.48 200.69V164.77C388.48 161.77 387.56 161.12 383.61 161.12V160.82H410.7V165.69H410.39C410.39 162.03 409.78 161.12 406.74 161.12H393.35V182.43H403.09C406.09 182.43 406.74 181.51 406.74 177.56H407.04V187.56H406.74C406.74 183.56 406.13 182.69 403.09 182.69H393.35V204.3H407.65C410.7 204.3 411.31 203.39 411.31 199.73L411.61 199.77Z" fill="white"/>
<path d="M177.59 0V2.23001H178.29C180.012 2.21361 181.735 2.28369 183.45 2.44C184.306 2.51727 185.155 2.65765 185.99 2.86C186.32 2.94 186.62 3.03 186.94 3.14L187.08 3.19C187.31 3.28 187.53 3.38 187.71 3.47L187.9 3.56C188.092 3.66356 188.279 3.77706 188.46 3.90001L188.56 3.97C188.754 4.10996 188.935 4.26727 189.1 4.44L189.17 4.52C189.317 4.68102 189.454 4.85136 189.58 5.03L189.69 5.20001C189.79 5.36001 189.87 5.52001 189.95 5.68001L190.06 5.90001C190.14 6.09001 190.21 6.28 190.31 6.58V6.71001C190.37 6.90001 190.42 7.11 190.47 7.33L119.07 115.93C117.75 117.7 113.2 118.6 105.55 118.6H104.85V120.83H132.3V118.6H131.6C125.97 118.6 122.97 118.08 121.29 116.79L190.82 11.05V66.33V109.33C190.928 111.214 190.66 113.101 190.03 114.88C186.965 115.858 183.991 117.099 181.14 118.59C180.58 118.88 180.01 119.19 179.45 119.5L179.09 119.69L178.29 120.14L178.9 121.39L180.52 120.77C181.52 120.38 182.52 120.05 183.52 119.77C185.036 119.306 186.579 118.936 188.14 118.66C195.46 117.13 205.37 119.3 205.49 119.35V61.13H231.33C239.11 61.13 240.58 63.13 240.58 73.7V74.4H242.81V45.62H240.58V46.32C240.58 56.89 239.11 58.89 231.33 58.89H205.53V2.23001H241.32C249.02 2.23001 250.58 4.23 250.58 13.97V14.67H252.8V0H177.59Z" fill="white"/>
</svg>
