<svg width="413" height="207" viewBox="0 0 413 207" fill="none" xmlns="http://www.w3.org/2000/svg">
<path d="M223.52 121L221.92 120.17C216.45 117.41 210.92 115.32 204.83 114.76V61.29H231.37C239.66 61.29 241.37 63.78 241.37 74.56H242.2V47.19H241.37C241.37 57.97 239.71 60.46 231.37 60.46H204.83V2.40002H241.32C249.62 2.40002 251.32 4.89003 251.32 14.84H252.14V1.57001H178.33V2.40002C180.33 2.40002 182.08 2.45999 183.56 2.60999C184.442 2.69237 185.318 2.83604 186.18 3.03998C186.519 3.11655 186.853 3.21343 187.18 3.33002L187.37 3.40002C187.62 3.50002 187.86 3.60002 188.09 3.71002L188.27 3.79999C188.502 3.92591 188.726 4.06617 188.94 4.21997H189.03C189.26 4.3973 189.478 4.59116 189.68 4.79999C189.853 4.98318 190.01 5.18057 190.15 5.39001C190.199 5.45277 190.243 5.51971 190.28 5.59003C190.392 5.76667 190.492 5.95038 190.58 6.14001L190.7 6.39001C190.794 6.59798 190.874 6.81177 190.94 7.03003C190.971 7.10508 190.998 7.18185 191.02 7.26001C191.11 7.57001 191.19 7.89001 191.26 8.26001L151.37 69L150.53 68.61C147.674 67.3406 144.746 66.242 141.76 65.32C138.833 64.411 135.815 63.8242 132.76 63.57C129.897 63.2904 127.011 63.3441 124.16 63.73C121.628 64.0478 119.13 64.6002 116.7 65.38C114.652 66.02 112.648 66.7916 110.7 67.69C109 68.52 107.53 69.29 106.37 69.95C104.09 71.37 102.81 72.21 102.81 72.21C102.81 72.21 104.26 71.72 106.81 70.78C108.08 70.35 109.63 69.9 111.36 69.35C113.09 68.8 115.13 68.35 117.36 67.97C119.702 67.537 122.071 67.2697 124.45 67.17C127.075 67.0907 129.702 67.2412 132.3 67.62C135.079 68.0358 137.813 68.7052 140.47 69.62C143.27 70.5364 146.012 71.6217 148.68 72.87L148.83 72.93L119.71 117.22C117.98 119.55 112.17 120.17 105.63 120.17V121H131.68V120.17C125.68 120.17 122.32 119.64 120.45 117.79L149.69 73.32L156.96 76.59C159.702 77.8414 162.521 78.9169 165.4 79.81C168.137 80.6904 170.965 81.2574 173.83 81.5C175.16 81.6218 176.495 81.6653 177.83 81.63C179.072 81.5689 180.311 81.4421 181.54 81.25C182.669 81.0981 183.785 80.8642 184.88 80.55C185.866 80.303 186.834 79.9923 187.78 79.62C189.092 79.1644 190.369 78.6129 191.6 77.97V110.22C191.726 112.312 191.385 114.406 190.6 116.35C187.468 117.318 184.432 118.574 181.53 120.1L179.86 121C179.47 121.21 179.09 121.41 178.71 121.64C179.26 121.41 179.8 121.2 180.34 121C181.34 120.62 182.34 120.28 183.34 120C184.88 119.531 186.446 119.154 188.03 118.87C193.632 117.86 199.398 118.255 204.81 120.02L205.35 120.19C206.12 120.45 206.89 120.73 207.65 121.02C231.24 130.25 249.65 158.39 309.15 130.02C264.53 151.32 244.32 132 223.52 121ZM187.27 77.91C186.328 78.1207 185.372 78.2644 184.41 78.34C183.366 78.4884 182.314 78.5685 181.26 78.58C178.915 78.6504 176.569 78.4761 174.26 78.06C171.678 77.5768 169.145 76.864 166.69 75.93C164.1 74.99 161.5 73.75 158.8 72.51L152.24 69.41L191.47 9.75C191.47 9.81 191.47 9.86999 191.47 9.92999C191.47 10.26 191.53 10.6 191.54 10.93C191.55 11.26 191.54 11.84 191.54 12.33V76.84C190.34 77.2 188.93 77.62 187.27 77.91Z" fill="url(#paint0_linear_1_101)"/>
<path d="M27.08 205.92V204.81H27.48C29.25 204.81 30.36 204.52 30.78 203.95C30.924 203.668 30.999 203.356 30.999 203.04C30.999 202.724 30.924 202.412 30.78 202.13L27.17 191.31H10.33L7.06995 201.68C6.69995 202.88 6.66998 203.6 6.97998 204.02C7.28998 204.44 8.46003 204.81 10.41 204.81H10.8101V205.92H0V204.81H0.400024C4.33002 204.81 5.12003 204.34 6.03003 201.44L17.6899 164.3C17.7684 164.132 17.8041 163.947 17.7936 163.762C17.7831 163.577 17.7269 163.398 17.63 163.24C17.35 162.85 16.51 162.39 14.09 162.39H13.6899V161.29H22.91L36.29 201.43C37.08 203.81 38.07 204.81 42.1 204.81H42.5V205.92H27.08ZM26.8199 190.2L18.52 165.28L10.6899 190.2H26.8199Z" fill="url(#paint1_linear_1_101)"/>
<path d="M42.09 205.21V205.52H27.48V205.21C31.17 205.21 31.8201 204.02 31.1801 202L27.48 190.91H10.05L6.70996 201.56C5.87996 204.22 6.48005 205.21 10.4301 205.21V205.52H0.430054V205.21C4.38005 205.21 5.43005 204.72 6.43005 201.56L18.08 164.42C18.58 162.89 17.52 161.99 14.08 161.99V161.69H22.61L35.9 201.56C36.81 204.29 38.13 205.21 42.09 205.21ZM27.38 190.6L18.5 164L10.15 190.62L27.38 190.6Z" fill="url(#paint2_linear_1_101)"/>
<path d="M101.19 205.92V204.81H101.59C103.37 204.81 104.48 204.52 104.89 203.95C105.034 203.668 105.109 203.356 105.109 203.04C105.109 202.724 105.034 202.412 104.89 202.13L101.29 191.31H84.4399L81.1899 201.68C80.8099 202.88 80.78 203.6 81.09 204.02C81.4 204.44 82.58 204.81 84.53 204.81H84.9301V205.92H74.09V204.81H74.49C78.42 204.81 79.21 204.34 80.12 201.44L91.78 164.3C91.8545 164.131 91.8869 163.946 91.8748 163.761C91.8626 163.577 91.806 163.398 91.71 163.24C91.43 162.85 90.5901 162.39 88.1801 162.39H87.78V161.29H97L110.38 201.43C111.18 203.82 112.16 204.81 116.19 204.81H116.59V205.92H101.19ZM100.94 190.2L92.63 165.28L84.8101 190.2H100.94Z" fill="url(#paint3_linear_1_101)"/>
<path d="M116.2 205.21V205.52H101.59V205.21C105.29 205.21 105.94 204.02 105.29 202L101.59 190.91H84.17L80.83 201.56C79.99 204.22 80.59 205.21 84.55 205.21V205.52H74.55V205.21C78.55 205.21 79.55 204.72 80.55 201.56L92.21 164.42C92.7 162.89 91.65 161.99 88.21 161.99V161.69H96.74L110 201.56C110.92 204.29 112.25 205.21 116.2 205.21ZM101.49 190.6L92.62 164L84.26 190.62L101.49 190.6Z" fill="url(#paint4_linear_1_101)"/>
<path d="M61.53 206.83C55.3715 206.822 49.4674 204.372 45.1127 200.017C40.7579 195.663 38.308 189.759 38.3 183.6C38.308 177.442 40.7582 171.539 45.1133 167.186C49.4683 162.833 55.3724 160.385 61.53 160.38C68.97 160.38 73.1 165.79 74.53 168.12C74.59 168.22 74.6499 168.29 74.6899 168.35C74.8068 167.656 74.8537 166.953 74.83 166.25V165.85H75.9301V176.39H74.83V175.99C74.83 171.99 74.15 169.47 72.49 167.19C71.2325 165.442 69.5817 164.015 67.6709 163.023C65.7601 162.031 63.6428 161.503 61.49 161.48C51.96 161.48 44.2 171.4 44.2 183.6C44.2 195.8 51.96 205.72 61.49 205.72C65.0357 205.804 68.4811 204.538 71.13 202.18V192.43C71.13 189.66 70.47 189.18 66.66 189.18H66.26V188.07H81.67V189.18H81.27C77.47 189.18 76.8 189.66 76.8 192.43V202.38L76.16 201.87C75.8196 201.598 75.3954 201.454 74.96 201.46C73.7491 201.619 72.6317 202.196 71.8 203.09C68.9603 205.569 65.2992 206.903 61.53 206.83Z" fill="url(#paint5_linear_1_101)"/>
<path d="M81.3101 188.47V188.78C77.3101 188.78 76.4399 189.38 76.4399 192.43V201.56C74.8699 200.33 72.9199 201.56 71.5699 202.79C68.8027 205.2 65.2391 206.498 61.5699 206.43C55.5151 206.43 49.7082 204.025 45.4268 199.743C41.1453 195.462 38.74 189.655 38.74 183.6C38.74 180.602 39.3306 177.634 40.478 174.865C41.6255 172.096 43.3073 169.579 45.4274 167.46C47.5475 165.341 50.0643 163.66 52.8341 162.514C55.6039 161.368 58.5723 160.779 61.5699 160.78C68.9099 160.78 72.86 166.1 74.23 168.33C74.79 169.17 75.23 169.55 75.23 166.25H75.53V176H75.23C75.23 172.06 74.5799 169.39 72.8199 167C71.5254 165.209 69.8307 163.745 67.8707 162.724C65.9107 161.703 63.7396 161.154 61.53 161.12C51.61 161.12 43.84 171.47 43.84 183.64C43.84 195.81 51.61 206.16 61.53 206.16C65.2204 206.225 68.7967 204.88 71.53 202.4V192.47C71.53 189.42 70.62 188.82 66.66 188.82V188.51L81.3101 188.47Z" fill="url(#paint6_linear_1_101)"/>
<path d="M153.18 205.92C146.66 205.92 142.43 202.23 140.61 194.92C138.61 187.06 135.44 184.26 133.09 184.26H127.09V201.51C127.09 204.28 127.76 204.77 131.56 204.77H131.96V205.87H116.55V204.77H116.95C120.75 204.77 121.42 204.28 121.42 201.51V165.6C121.42 162.84 120.75 162.35 116.95 162.35H116.55V161.24H133.08C139.23 161.24 148.39 164.39 148.39 173.05C148.39 178.46 143.77 182.76 136.94 183.94C139.228 184.771 141.267 186.168 142.869 188.001C144.471 189.833 145.582 192.042 146.1 194.42C147.38 199.57 150.1 204.77 153.17 204.77H153.57V205.88L153.18 205.92ZM133.09 183.2C137.87 183.2 142.73 178.1 142.73 173.09C142.73 165 136.23 162.39 133.09 162.39H127.09V183.2H133.09Z" fill="url(#paint7_linear_1_101)"/>
<path d="M153.18 205.21V205.52C149.81 205.52 143.44 204.6 141 194.86C139 186.7 135.6 183.86 133.09 183.86H126.7V201.51C126.7 204.56 127.61 205.17 131.57 205.17V205.47H117V205.17C121 205.17 121.87 204.56 121.87 201.51V165.6C121.87 162.6 120.95 161.95 117 161.95V161.64H133.13C139.52 161.64 148.04 164.99 148.04 173.05C148.04 178.83 142.59 183.16 135.04 183.78C137.664 184.363 140.068 185.684 141.967 187.586C143.866 189.489 145.182 191.895 145.76 194.52C146.93 199.43 149.61 205.21 153.18 205.21ZM133.09 183.6C138.26 183.6 143.09 178.12 143.09 173.09C143.09 165.03 136.7 161.99 133.09 161.99H126.7V183.6H133.09Z" fill="url(#paint8_linear_1_101)"/>
<path d="M175.4 205.92V204.81H175.8C179.6 204.81 180.27 204.32 180.27 201.56V165.64C180.27 162.88 179.6 162.39 175.8 162.39H175.4V161.29H203.29V167H202.18V166.6C202.18 163.09 201.67 162.43 198.93 162.43H185.93V182.94H195.27C198.04 182.94 198.52 182.27 198.52 178.47V178.07H199.63V188.91H198.52V188.51C198.52 184.71 198.04 184.04 195.27 184.04H185.93V204.85H199.84C202.57 204.85 203.09 204.19 203.09 200.68V200.28H204.19V205.96L175.4 205.92Z" fill="url(#paint9_linear_1_101)"/>
<path d="M203.8 200.64V205.52H175.8V205.21C179.8 205.21 180.67 204.6 180.67 201.56V165.64C180.67 162.64 179.76 161.99 175.8 161.99V161.69H202.89V166.56H202.58C202.58 162.9 201.98 161.99 198.93 161.99H185.54V183.3H195.28C198.28 183.3 198.93 182.38 198.93 178.43H199.24V188.43H198.93C198.93 184.43 198.33 183.56 195.28 183.56H185.54V205.17H199.85C202.85 205.17 203.5 204.26 203.5 200.6L203.8 200.64Z" fill="url(#paint10_linear_1_101)"/>
<path d="M220 206.83C214.88 206.83 210.55 204.77 208.12 201.17L208 201C207.857 200.77 207.7 200.55 207.53 200.34C207.397 201.045 207.347 201.763 207.38 202.48V202.88H206.27V192.34H207.38V192.74C207.38 196.68 208.12 199.38 209.77 201.48C212.01 204.14 215.85 205.73 220.03 205.73C226.47 205.73 230.62 201.59 230.62 195.18C230.62 188.77 225.14 186.26 219.33 183.52C213.52 180.78 207.75 178.06 207.49 171.45C207.424 170.147 207.629 168.845 208.09 167.625C208.551 166.405 209.259 165.293 210.17 164.36C211.566 163.026 213.215 161.984 215.021 161.297C216.826 160.61 218.75 160.292 220.68 160.36C222.544 160.317 224.388 160.755 226.034 161.63C227.68 162.506 229.074 163.79 230.08 165.36C230.194 165.546 230.321 165.723 230.46 165.89C230.602 165.203 230.656 164.501 230.62 163.8V163.4H231.73V174H230.62V173.6C230.62 169.71 229.79 166.6 228.27 164.9C227.36 163.856 226.241 163.016 224.985 162.434C223.729 161.851 222.364 161.54 220.98 161.52C219.753 161.466 218.527 161.667 217.381 162.109C216.235 162.551 215.193 163.226 214.32 164.09C213.595 164.869 213.037 165.788 212.681 166.791C212.325 167.793 212.179 168.858 212.25 169.92C212.5 174.63 217.46 176.83 222.71 179.15C229.21 182.02 236.59 185.28 236.3 194.1C236.01 202.92 227.63 206.83 220 206.83Z" fill="url(#paint11_linear_1_101)"/>
<path d="M235.89 194C235.6 202.44 227.6 206.39 219.99 206.39C214.79 206.39 210.65 204.18 208.44 200.9C207.69 199.77 206.97 198.46 206.97 202.42H206.66V192.68H206.97C206.97 196.61 207.69 199.44 209.44 201.68C211.99 204.68 216.12 206.08 220.02 206.08C226.7 206.08 231.02 201.66 231.02 195.13C231.02 182.08 208.4 184.23 207.89 171.39C207.63 164.79 213.68 160.74 220.68 160.74C222.478 160.692 224.257 161.111 225.845 161.956C227.433 162.801 228.775 164.042 229.74 165.56C230.32 166.45 231.02 167.36 231.02 163.78H231.33V173.52H231C231 169.84 230.28 166.52 228.55 164.52C227.603 163.434 226.438 162.56 225.13 161.955C223.822 161.35 222.401 161.028 220.96 161.01C214.87 161.01 211.58 165.23 211.83 169.83C212.42 180.88 236.4 178.46 235.89 194Z" fill="url(#paint12_linear_1_101)"/>
<path d="M252.2 206.83C247.2 206.83 242.71 204.71 240.32 201.17L240.2 200.99C240.07 200.79 239.87 200.5 239.73 200.33C239.597 201.035 239.547 201.753 239.58 202.47V202.87H238.47V192.33H239.58V192.73C239.58 196.67 240.31 199.37 241.96 201.47C244.2 204.13 248.04 205.72 252.23 205.72C258.66 205.72 262.82 201.58 262.82 195.17C262.82 188.76 257.33 186.25 251.53 183.51C245.73 180.77 239.95 178.05 239.69 171.44C239.622 170.138 239.824 168.836 240.283 167.616C240.743 166.396 241.45 165.284 242.36 164.35C243.758 163.017 245.407 161.977 247.212 161.29C249.017 160.604 250.94 160.284 252.87 160.35C254.734 160.307 256.578 160.745 258.224 161.62C259.87 162.496 261.264 163.78 262.27 165.35C262.384 165.536 262.511 165.713 262.65 165.88C262.798 165.194 262.855 164.491 262.82 163.79V163.39H263.92V174H262.82V173.6C262.82 169.71 261.98 166.6 260.47 164.9C259.559 163.857 258.44 163.018 257.184 162.435C255.928 161.853 254.564 161.541 253.18 161.52C251.953 161.464 250.727 161.664 249.58 162.106C248.434 162.549 247.392 163.224 246.52 164.09C245.794 164.868 245.235 165.787 244.877 166.79C244.519 167.792 244.37 168.858 244.44 169.92C244.7 174.63 249.65 176.83 254.9 179.15C261.41 182.02 268.78 185.28 268.49 194.1C268.2 202.92 259.84 206.83 252.2 206.83Z" fill="url(#paint13_linear_1_101)"/>
<path d="M268.09 194C267.81 202.44 259.81 206.39 252.2 206.39C246.99 206.39 242.86 204.18 240.64 200.9C239.88 199.77 239.17 198.46 239.17 202.42H238.86V192.68H239.17C239.17 196.61 239.89 199.44 241.64 201.68C244.18 204.68 248.31 206.08 252.22 206.08C258.89 206.08 263.22 201.66 263.22 195.13C263.22 182.08 240.6 184.23 240.09 171.39C239.83 164.79 245.87 160.74 252.87 160.74C254.669 160.694 256.45 161.113 258.039 161.957C259.628 162.802 260.972 164.043 261.94 165.56C262.51 166.45 263.22 167.36 263.22 163.78H263.52V173.52H263.22C263.22 169.84 262.49 166.52 260.77 164.52C259.823 163.434 258.657 162.561 257.349 161.956C256.041 161.351 254.621 161.029 253.18 161.01C247.09 161.01 243.8 165.23 244.04 169.83C244.63 180.88 268.61 178.46 268.09 194Z" fill="url(#paint14_linear_1_101)"/>
<path d="M269.33 205.92V204.81H269.74C273.54 204.81 274.2 204.32 274.2 201.56V165.64C274.2 162.88 273.54 162.39 269.74 162.39H269.33V161.29H297.22V167H296.12V166.6C296.12 163.09 295.6 162.43 292.87 162.43H279.87V182.94H289.21C291.98 182.94 292.46 182.27 292.46 178.47V178.07H293.57V188.91H292.46V188.51C292.46 184.71 291.98 184.04 289.21 184.04H279.87V204.85H293.78C296.51 204.85 297.03 204.19 297.03 200.68V200.28H298.13V205.96L269.33 205.92Z" fill="url(#paint15_linear_1_101)"/>
<path d="M297.73 200.64V205.52H269.73V205.21C273.73 205.21 274.59 204.6 274.59 201.56V165.64C274.59 162.64 273.68 161.99 269.73 161.99V161.69H296.81V166.56H296.51C296.51 162.9 295.9 161.99 292.86 161.99H279.46V183.3H289.2C292.2 183.3 292.86 182.38 292.86 178.43H293.16V188.43H292.86C292.86 184.43 292.25 183.56 289.2 183.56H279.46V205.17H293.77C296.77 205.17 297.42 204.26 297.42 200.6L297.73 200.64Z" fill="url(#paint16_linear_1_101)"/>
<path d="M337.46 205.92L305.8 165.48V201.56C305.8 204.32 306.46 204.81 310.27 204.81H310.67V205.92H299.82V204.81H300.22C304.02 204.81 304.69 204.32 304.69 201.56V165.34C304.69 162.98 304.17 162.39 300.22 162.39H299.82V161.29H308.94L337.26 197.59V165.64C337.26 162.88 336.59 162.39 332.79 162.39H332.39V161.29H343.23V162.39H342.83C339.03 162.39 338.36 162.88 338.36 165.64V205.92H337.46Z" fill="url(#paint17_linear_1_101)"/>
<path d="M342.83 161.69V161.99C338.83 161.99 337.96 162.6 337.96 165.64V205.52H337.66L305.4 164.32V201.56C305.4 204.56 306.31 205.21 310.27 205.21V205.52H300.27V205.21C304.27 205.21 305.14 204.6 305.14 201.56V165.34C305.14 162.6 304.23 161.99 300.27 161.99V161.69H308.79L337.71 198.75V165.64C337.71 162.64 336.8 161.99 332.84 161.99V161.69H342.83Z" fill="url(#paint18_linear_1_101)"/>
<path d="M367.06 206.83C360.902 206.822 354.997 204.372 350.643 200.017C346.288 195.663 343.838 189.759 343.83 183.6C343.838 177.442 346.288 171.539 350.643 167.186C354.998 162.833 360.902 160.385 367.06 160.38C369.454 160.431 371.802 161.046 373.913 162.175C376.025 163.305 377.839 164.917 379.21 166.88C379.31 167 379.81 167.73 380.08 168.15C380.121 168.224 380.168 168.294 380.22 168.36C380.33 167.662 380.374 166.956 380.35 166.25V165.85H381.46V176.39H380.35V175.99C380.35 172.04 379.64 169.33 378.03 167.2C376.78 165.444 375.131 164.01 373.219 163.016C371.306 162.021 369.185 161.495 367.03 161.48C357.52 161.48 349.78 171.4 349.78 183.6C349.78 195.8 357.52 205.72 367.03 205.72C373.54 205.72 378.59 202.03 381.27 195.32L381.37 195.07H382.51L382.32 195.61C379.72 202.74 374.15 206.83 367.06 206.83Z" fill="url(#paint19_linear_1_101)"/>
<path d="M382 195.47C379.87 201.25 375.09 206.47 367.09 206.47C361.035 206.47 355.228 204.065 350.947 199.783C346.665 195.502 344.26 189.695 344.26 183.64C344.26 180.642 344.851 177.674 345.998 174.905C347.145 172.136 348.827 169.619 350.947 167.5C353.067 165.381 355.584 163.7 358.354 162.554C361.124 161.408 364.092 160.819 367.09 160.82C369.423 160.866 371.711 161.464 373.768 162.566C375.824 163.669 377.59 165.243 378.92 167.16C379.01 167.28 379.51 167.99 379.77 168.41C380.33 169.24 380.77 169.54 380.77 166.29H381.08V176H380.77C380.77 172.06 380.06 169.21 378.36 167C377.074 165.203 375.382 163.734 373.422 162.712C371.463 161.691 369.29 161.145 367.08 161.12C357.16 161.12 349.43 171.47 349.43 183.64C349.43 195.81 357.16 206.16 367.08 206.16C373.32 206.16 378.75 202.88 381.69 195.51L382 195.47Z" fill="url(#paint20_linear_1_101)"/>
<path d="M383.21 205.92V204.81H383.61C387.41 204.81 388.08 204.32 388.08 201.56V165.64C388.08 162.88 387.41 162.39 383.61 162.39H383.21V161.29H411.1V167H410V166.6C410 163.09 409.49 162.43 406.75 162.43H393.75V182.94H403.09C405.85 182.94 406.34 182.27 406.34 178.47V178.07H407.45V188.91H406.34V188.51C406.34 184.71 405.85 184.04 403.09 184.04H393.75V204.85H407.65C410.39 204.85 410.91 204.19 410.91 200.68V200.28H412.01V205.96L383.21 205.92Z" fill="url(#paint21_linear_1_101)"/>
<path d="M411.61 200.64V205.52H383.61V205.21C387.61 205.21 388.48 204.6 388.48 201.56V165.64C388.48 162.64 387.56 161.99 383.61 161.99V161.69H410.7V166.56H410.39C410.39 162.9 409.78 161.99 406.74 161.99H393.35V183.3H403.09C406.09 183.3 406.74 182.38 406.74 178.43H407.04V188.43H406.74C406.74 184.43 406.13 183.56 403.09 183.56H393.35V205.17H407.65C410.65 205.17 411.31 204.26 411.31 200.6L411.61 200.64Z" fill="url(#paint22_linear_1_101)"/>
<path d="M177.59 0.869995V3.09998H178.29C180.012 3.08357 181.735 3.15368 183.45 3.31C184.306 3.38726 185.155 3.52763 185.99 3.72998C186.32 3.80998 186.62 3.90001 186.99 4.01001H187.13C187.36 4.10001 187.58 4.19998 187.76 4.28998L187.95 4.38C188.142 4.48356 188.329 4.59702 188.51 4.71997L188.61 4.78998C188.804 4.92993 188.985 5.08728 189.15 5.26001L189.22 5.34003C189.367 5.50104 189.504 5.67134 189.63 5.84998L189.74 6.02002C189.84 6.18002 189.92 6.34 190 6.5L190.11 6.71997C190.19 6.90997 190.26 7.10002 190.36 7.40002V7.53003C190.42 7.72003 190.47 7.93002 190.52 8.15002L119.12 116.75C117.8 118.52 113.25 119.42 105.6 119.42H104.9V121.65H132.35V119.42H131.65C126.02 119.42 123.02 118.9 121.34 117.61L190.87 11.87V67.15V110.15C190.978 112.034 190.71 113.921 190.08 115.7C187.015 116.678 184.041 117.919 181.19 119.41C180.63 119.7 180.06 120.01 179.5 120.32L179.14 120.51L178.34 120.96L178.95 122.21L180.57 121.59C181.57 121.2 182.57 120.87 183.57 120.59C185.086 120.126 186.629 119.756 188.19 119.48C195.51 117.95 205.42 120.12 205.54 120.17V62H231.38C239.16 62 240.63 64 240.63 74.57V75.27H242.86V46.5H240.63V47.2C240.63 57.77 239.16 59.77 231.38 59.77H205.54V3.09998H241.33C249.03 3.09998 250.59 5.10003 250.59 14.84V15.54H252.81V0.869995H177.59Z" fill="url(#paint23_linear_1_101)"/>
<defs>
<linearGradient id="paint0_linear_1_101" x1="206" y1="-8.54999" x2="206" y2="188.55" gradientUnits="userSpaceOnUse">
<stop stop-color="#70421F"/>
<stop offset="0.01" stop-color="#824D23"/>
<stop offset="0.02" stop-color="#844E23"/>
<stop offset="0.04" stop-color="#F6E689"/>
<stop offset="0.07" stop-color="#8E5C25"/>
<stop offset="0.09" stop-color="#9A692E"/>
<stop offset="0.13" stop-color="#BB8B45"/>
<stop offset="0.16" stop-color="#E7B965"/>
<stop offset="0.32" stop-color="#F7E687"/>
<stop offset="0.58" stop-color="#8A5F3D"/>
<stop offset="0.72" stop-color="#E6B963"/>
<stop offset="1" stop-color="#603B17"/>
</linearGradient>
<linearGradient id="paint1_linear_1_101" x1="21.24" y1="150.7" x2="21.24" y2="216.64" gradientUnits="userSpaceOnUse">
<stop stop-color="#70421F"/>
<stop offset="0.01" stop-color="#824D23"/>
<stop offset="0.02" stop-color="#844E23"/>
<stop offset="0.04" stop-color="#F6E689"/>
<stop offset="0.07" stop-color="#8E5C25"/>
<stop offset="0.09" stop-color="#9A692E"/>
<stop offset="0.13" stop-color="#BB8B45"/>
<stop offset="0.16" stop-color="#E7B965"/>
<stop offset="0.32" stop-color="#F7E687"/>
<stop offset="0.58" stop-color="#8A5F3D"/>
<stop offset="0.72" stop-color="#E6B963"/>
<stop offset="1" stop-color="#603B17"/>
</linearGradient>
<linearGradient id="paint2_linear_1_101" x1="21.24" y1="150.7" x2="21.24" y2="216.64" gradientUnits="userSpaceOnUse">
<stop stop-color="#70421F"/>
<stop offset="0.01" stop-color="#824D23"/>
<stop offset="0.02" stop-color="#844E23"/>
<stop offset="0.04" stop-color="#F6E689"/>
<stop offset="0.07" stop-color="#8E5C25"/>
<stop offset="0.09" stop-color="#9A692E"/>
<stop offset="0.13" stop-color="#BB8B45"/>
<stop offset="0.16" stop-color="#E7B965"/>
<stop offset="0.32" stop-color="#F7E687"/>
<stop offset="0.58" stop-color="#8A5F3D"/>
<stop offset="0.72" stop-color="#E6B963"/>
<stop offset="1" stop-color="#603B17"/>
</linearGradient>
<linearGradient id="paint3_linear_1_101" x1="95.35" y1="150.7" x2="95.35" y2="216.64" gradientUnits="userSpaceOnUse">
<stop stop-color="#70421F"/>
<stop offset="0.01" stop-color="#824D23"/>
<stop offset="0.02" stop-color="#844E23"/>
<stop offset="0.04" stop-color="#F6E689"/>
<stop offset="0.07" stop-color="#8E5C25"/>
<stop offset="0.09" stop-color="#9A692E"/>
<stop offset="0.13" stop-color="#BB8B45"/>
<stop offset="0.16" stop-color="#E7B965"/>
<stop offset="0.32" stop-color="#F7E687"/>
<stop offset="0.58" stop-color="#8A5F3D"/>
<stop offset="0.72" stop-color="#E6B963"/>
<stop offset="1" stop-color="#603B17"/>
</linearGradient>
<linearGradient id="paint4_linear_1_101" x1="95.35" y1="150.7" x2="95.35" y2="216.64" gradientUnits="userSpaceOnUse">
<stop stop-color="#70421F"/>
<stop offset="0.01" stop-color="#824D23"/>
<stop offset="0.02" stop-color="#844E23"/>
<stop offset="0.04" stop-color="#F6E689"/>
<stop offset="0.07" stop-color="#8E5C25"/>
<stop offset="0.09" stop-color="#9A692E"/>
<stop offset="0.13" stop-color="#BB8B45"/>
<stop offset="0.16" stop-color="#E7B965"/>
<stop offset="0.32" stop-color="#F7E687"/>
<stop offset="0.58" stop-color="#8A5F3D"/>
<stop offset="0.72" stop-color="#E6B963"/>
<stop offset="1" stop-color="#603B17"/>
</linearGradient>
<linearGradient id="paint5_linear_1_101" x1="60.01" y1="150.7" x2="60.01" y2="216.64" gradientUnits="userSpaceOnUse">
<stop stop-color="#70421F"/>
<stop offset="0.01" stop-color="#824D23"/>
<stop offset="0.02" stop-color="#844E23"/>
<stop offset="0.04" stop-color="#F6E689"/>
<stop offset="0.07" stop-color="#8E5C25"/>
<stop offset="0.09" stop-color="#9A692E"/>
<stop offset="0.13" stop-color="#BB8B45"/>
<stop offset="0.16" stop-color="#E7B965"/>
<stop offset="0.32" stop-color="#F7E687"/>
<stop offset="0.58" stop-color="#8A5F3D"/>
<stop offset="0.72" stop-color="#E6B963"/>
<stop offset="1" stop-color="#603B17"/>
</linearGradient>
<linearGradient id="paint6_linear_1_101" x1="60.01" y1="150.7" x2="60.01" y2="216.64" gradientUnits="userSpaceOnUse">
<stop stop-color="#70421F"/>
<stop offset="0.01" stop-color="#824D23"/>
<stop offset="0.02" stop-color="#844E23"/>
<stop offset="0.04" stop-color="#F6E689"/>
<stop offset="0.07" stop-color="#8E5C25"/>
<stop offset="0.09" stop-color="#9A692E"/>
<stop offset="0.13" stop-color="#BB8B45"/>
<stop offset="0.16" stop-color="#E7B965"/>
<stop offset="0.32" stop-color="#F7E687"/>
<stop offset="0.58" stop-color="#8A5F3D"/>
<stop offset="0.72" stop-color="#E6B963"/>
<stop offset="1" stop-color="#603B17"/>
</linearGradient>
<linearGradient id="paint7_linear_1_101" x1="135.07" y1="150.7" x2="135.07" y2="216.64" gradientUnits="userSpaceOnUse">
<stop stop-color="#70421F"/>
<stop offset="0.01" stop-color="#824D23"/>
<stop offset="0.02" stop-color="#844E23"/>
<stop offset="0.04" stop-color="#F6E689"/>
<stop offset="0.07" stop-color="#8E5C25"/>
<stop offset="0.09" stop-color="#9A692E"/>
<stop offset="0.13" stop-color="#BB8B45"/>
<stop offset="0.16" stop-color="#E7B965"/>
<stop offset="0.32" stop-color="#F7E687"/>
<stop offset="0.58" stop-color="#8A5F3D"/>
<stop offset="0.72" stop-color="#E6B963"/>
<stop offset="1" stop-color="#603B17"/>
</linearGradient>
<linearGradient id="paint8_linear_1_101" x1="135.07" y1="150.7" x2="135.07" y2="216.64" gradientUnits="userSpaceOnUse">
<stop stop-color="#70421F"/>
<stop offset="0.01" stop-color="#824D23"/>
<stop offset="0.02" stop-color="#844E23"/>
<stop offset="0.04" stop-color="#F6E689"/>
<stop offset="0.07" stop-color="#8E5C25"/>
<stop offset="0.09" stop-color="#9A692E"/>
<stop offset="0.13" stop-color="#BB8B45"/>
<stop offset="0.16" stop-color="#E7B965"/>
<stop offset="0.32" stop-color="#F7E687"/>
<stop offset="0.58" stop-color="#8A5F3D"/>
<stop offset="0.72" stop-color="#E6B963"/>
<stop offset="1" stop-color="#603B17"/>
</linearGradient>
<linearGradient id="paint9_linear_1_101" x1="189.8" y1="150.7" x2="189.8" y2="216.64" gradientUnits="userSpaceOnUse">
<stop stop-color="#70421F"/>
<stop offset="0.01" stop-color="#824D23"/>
<stop offset="0.02" stop-color="#844E23"/>
<stop offset="0.04" stop-color="#F6E689"/>
<stop offset="0.07" stop-color="#8E5C25"/>
<stop offset="0.09" stop-color="#9A692E"/>
<stop offset="0.13" stop-color="#BB8B45"/>
<stop offset="0.16" stop-color="#E7B965"/>
<stop offset="0.32" stop-color="#F7E687"/>
<stop offset="0.58" stop-color="#8A5F3D"/>
<stop offset="0.72" stop-color="#E6B963"/>
<stop offset="1" stop-color="#603B17"/>
</linearGradient>
<linearGradient id="paint10_linear_1_101" x1="189.8" y1="150.7" x2="189.8" y2="216.64" gradientUnits="userSpaceOnUse">
<stop stop-color="#70421F"/>
<stop offset="0.01" stop-color="#824D23"/>
<stop offset="0.02" stop-color="#844E23"/>
<stop offset="0.04" stop-color="#F6E689"/>
<stop offset="0.07" stop-color="#8E5C25"/>
<stop offset="0.09" stop-color="#9A692E"/>
<stop offset="0.13" stop-color="#BB8B45"/>
<stop offset="0.16" stop-color="#E7B965"/>
<stop offset="0.32" stop-color="#F7E687"/>
<stop offset="0.58" stop-color="#8A5F3D"/>
<stop offset="0.72" stop-color="#E6B963"/>
<stop offset="1" stop-color="#603B17"/>
</linearGradient>
<linearGradient id="paint11_linear_1_101" x1="221.28" y1="150.7" x2="221.28" y2="216.64" gradientUnits="userSpaceOnUse">
<stop stop-color="#70421F"/>
<stop offset="0.01" stop-color="#824D23"/>
<stop offset="0.02" stop-color="#844E23"/>
<stop offset="0.04" stop-color="#F6E689"/>
<stop offset="0.07" stop-color="#8E5C25"/>
<stop offset="0.09" stop-color="#9A692E"/>
<stop offset="0.13" stop-color="#BB8B45"/>
<stop offset="0.16" stop-color="#E7B965"/>
<stop offset="0.32" stop-color="#F7E687"/>
<stop offset="0.58" stop-color="#8A5F3D"/>
<stop offset="0.72" stop-color="#E6B963"/>
<stop offset="1" stop-color="#603B17"/>
</linearGradient>
<linearGradient id="paint12_linear_1_101" x1="221.28" y1="150.7" x2="221.28" y2="216.64" gradientUnits="userSpaceOnUse">
<stop stop-color="#70421F"/>
<stop offset="0.01" stop-color="#824D23"/>
<stop offset="0.02" stop-color="#844E23"/>
<stop offset="0.04" stop-color="#F6E689"/>
<stop offset="0.07" stop-color="#8E5C25"/>
<stop offset="0.09" stop-color="#9A692E"/>
<stop offset="0.13" stop-color="#BB8B45"/>
<stop offset="0.16" stop-color="#E7B965"/>
<stop offset="0.32" stop-color="#F7E687"/>
<stop offset="0.58" stop-color="#8A5F3D"/>
<stop offset="0.72" stop-color="#E6B963"/>
<stop offset="1" stop-color="#603B17"/>
</linearGradient>
<linearGradient id="paint13_linear_1_101" x1="253.48" y1="150.7" x2="253.48" y2="216.64" gradientUnits="userSpaceOnUse">
<stop stop-color="#70421F"/>
<stop offset="0.01" stop-color="#824D23"/>
<stop offset="0.02" stop-color="#844E23"/>
<stop offset="0.04" stop-color="#F6E689"/>
<stop offset="0.07" stop-color="#8E5C25"/>
<stop offset="0.09" stop-color="#9A692E"/>
<stop offset="0.13" stop-color="#BB8B45"/>
<stop offset="0.16" stop-color="#E7B965"/>
<stop offset="0.32" stop-color="#F7E687"/>
<stop offset="0.58" stop-color="#8A5F3D"/>
<stop offset="0.72" stop-color="#E6B963"/>
<stop offset="1" stop-color="#603B17"/>
</linearGradient>
<linearGradient id="paint14_linear_1_101" x1="253.48" y1="150.7" x2="253.48" y2="216.64" gradientUnits="userSpaceOnUse">
<stop stop-color="#70421F"/>
<stop offset="0.01" stop-color="#824D23"/>
<stop offset="0.02" stop-color="#844E23"/>
<stop offset="0.04" stop-color="#F6E689"/>
<stop offset="0.07" stop-color="#8E5C25"/>
<stop offset="0.09" stop-color="#9A692E"/>
<stop offset="0.13" stop-color="#BB8B45"/>
<stop offset="0.16" stop-color="#E7B965"/>
<stop offset="0.32" stop-color="#F7E687"/>
<stop offset="0.58" stop-color="#8A5F3D"/>
<stop offset="0.72" stop-color="#E6B963"/>
<stop offset="1" stop-color="#603B17"/>
</linearGradient>
<linearGradient id="paint15_linear_1_101" x1="283.73" y1="150.7" x2="283.73" y2="216.64" gradientUnits="userSpaceOnUse">
<stop stop-color="#70421F"/>
<stop offset="0.01" stop-color="#824D23"/>
<stop offset="0.02" stop-color="#844E23"/>
<stop offset="0.04" stop-color="#F6E689"/>
<stop offset="0.07" stop-color="#8E5C25"/>
<stop offset="0.09" stop-color="#9A692E"/>
<stop offset="0.13" stop-color="#BB8B45"/>
<stop offset="0.16" stop-color="#E7B965"/>
<stop offset="0.32" stop-color="#F7E687"/>
<stop offset="0.58" stop-color="#8A5F3D"/>
<stop offset="0.72" stop-color="#E6B963"/>
<stop offset="1" stop-color="#603B17"/>
</linearGradient>
<linearGradient id="paint16_linear_1_101" x1="283.73" y1="150.7" x2="283.73" y2="216.64" gradientUnits="userSpaceOnUse">
<stop stop-color="#70421F"/>
<stop offset="0.01" stop-color="#824D23"/>
<stop offset="0.02" stop-color="#844E23"/>
<stop offset="0.04" stop-color="#F6E689"/>
<stop offset="0.07" stop-color="#8E5C25"/>
<stop offset="0.09" stop-color="#9A692E"/>
<stop offset="0.13" stop-color="#BB8B45"/>
<stop offset="0.16" stop-color="#E7B965"/>
<stop offset="0.32" stop-color="#F7E687"/>
<stop offset="0.58" stop-color="#8A5F3D"/>
<stop offset="0.72" stop-color="#E6B963"/>
<stop offset="1" stop-color="#603B17"/>
</linearGradient>
<linearGradient id="paint17_linear_1_101" x1="321.53" y1="150.7" x2="321.53" y2="216.64" gradientUnits="userSpaceOnUse">
<stop stop-color="#70421F"/>
<stop offset="0.01" stop-color="#824D23"/>
<stop offset="0.02" stop-color="#844E23"/>
<stop offset="0.04" stop-color="#F6E689"/>
<stop offset="0.07" stop-color="#8E5C25"/>
<stop offset="0.09" stop-color="#9A692E"/>
<stop offset="0.13" stop-color="#BB8B45"/>
<stop offset="0.16" stop-color="#E7B965"/>
<stop offset="0.32" stop-color="#F7E687"/>
<stop offset="0.58" stop-color="#8A5F3D"/>
<stop offset="0.72" stop-color="#E6B963"/>
<stop offset="1" stop-color="#603B17"/>
</linearGradient>
<linearGradient id="paint18_linear_1_101" x1="321.53" y1="150.7" x2="321.53" y2="216.64" gradientUnits="userSpaceOnUse">
<stop stop-color="#70421F"/>
<stop offset="0.01" stop-color="#824D23"/>
<stop offset="0.02" stop-color="#844E23"/>
<stop offset="0.04" stop-color="#F6E689"/>
<stop offset="0.07" stop-color="#8E5C25"/>
<stop offset="0.09" stop-color="#9A692E"/>
<stop offset="0.13" stop-color="#BB8B45"/>
<stop offset="0.16" stop-color="#E7B965"/>
<stop offset="0.32" stop-color="#F7E687"/>
<stop offset="0.58" stop-color="#8A5F3D"/>
<stop offset="0.72" stop-color="#E6B963"/>
<stop offset="1" stop-color="#603B17"/>
</linearGradient>
<linearGradient id="paint19_linear_1_101" x1="363.19" y1="150.7" x2="363.19" y2="216.64" gradientUnits="userSpaceOnUse">
<stop stop-color="#70421F"/>
<stop offset="0.01" stop-color="#824D23"/>
<stop offset="0.02" stop-color="#844E23"/>
<stop offset="0.04" stop-color="#F6E689"/>
<stop offset="0.07" stop-color="#8E5C25"/>
<stop offset="0.09" stop-color="#9A692E"/>
<stop offset="0.13" stop-color="#BB8B45"/>
<stop offset="0.16" stop-color="#E7B965"/>
<stop offset="0.32" stop-color="#F7E687"/>
<stop offset="0.58" stop-color="#8A5F3D"/>
<stop offset="0.72" stop-color="#E6B963"/>
<stop offset="1" stop-color="#603B17"/>
</linearGradient>
<linearGradient id="paint20_linear_1_101" x1="363.1" y1="150.7" x2="363.1" y2="216.64" gradientUnits="userSpaceOnUse">
<stop stop-color="#70421F"/>
<stop offset="0.01" stop-color="#824D23"/>
<stop offset="0.02" stop-color="#844E23"/>
<stop offset="0.04" stop-color="#F6E689"/>
<stop offset="0.07" stop-color="#8E5C25"/>
<stop offset="0.09" stop-color="#9A692E"/>
<stop offset="0.13" stop-color="#BB8B45"/>
<stop offset="0.16" stop-color="#E7B965"/>
<stop offset="0.32" stop-color="#F7E687"/>
<stop offset="0.58" stop-color="#8A5F3D"/>
<stop offset="0.72" stop-color="#E6B963"/>
<stop offset="1" stop-color="#603B17"/>
</linearGradient>
<linearGradient id="paint21_linear_1_101" x1="397.61" y1="150.7" x2="397.61" y2="216.64" gradientUnits="userSpaceOnUse">
<stop stop-color="#70421F"/>
<stop offset="0.01" stop-color="#824D23"/>
<stop offset="0.02" stop-color="#844E23"/>
<stop offset="0.04" stop-color="#F6E689"/>
<stop offset="0.07" stop-color="#8E5C25"/>
<stop offset="0.09" stop-color="#9A692E"/>
<stop offset="0.13" stop-color="#BB8B45"/>
<stop offset="0.16" stop-color="#E7B965"/>
<stop offset="0.32" stop-color="#F7E687"/>
<stop offset="0.58" stop-color="#8A5F3D"/>
<stop offset="0.72" stop-color="#E6B963"/>
<stop offset="1" stop-color="#603B17"/>
</linearGradient>
<linearGradient id="paint22_linear_1_101" x1="397.61" y1="150.7" x2="397.61" y2="216.64" gradientUnits="userSpaceOnUse">
<stop stop-color="#70421F"/>
<stop offset="0.01" stop-color="#824D23"/>
<stop offset="0.02" stop-color="#844E23"/>
<stop offset="0.04" stop-color="#F6E689"/>
<stop offset="0.07" stop-color="#8E5C25"/>
<stop offset="0.09" stop-color="#9A692E"/>
<stop offset="0.13" stop-color="#BB8B45"/>
<stop offset="0.16" stop-color="#E7B965"/>
<stop offset="0.32" stop-color="#F7E687"/>
<stop offset="0.58" stop-color="#8A5F3D"/>
<stop offset="0.72" stop-color="#E6B963"/>
<stop offset="1" stop-color="#603B17"/>
</linearGradient>
<linearGradient id="paint23_linear_1_101" x1="178.85" y1="-8.55" x2="178.85" y2="188.55" gradientUnits="userSpaceOnUse">
<stop stop-color="#70421F"/>
<stop offset="0.01" stop-color="#824D23"/>
<stop offset="0.02" stop-color="#844E23"/>
<stop offset="0.04" stop-color="#F6E689"/>
<stop offset="0.07" stop-color="#8E5C25"/>
<stop offset="0.09" stop-color="#9A692E"/>
<stop offset="0.13" stop-color="#BB8B45"/>
<stop offset="0.16" stop-color="#E7B965"/>
<stop offset="0.32" stop-color="#F7E687"/>
<stop offset="0.58" stop-color="#8A5F3D"/>
<stop offset="0.72" stop-color="#E6B963"/>
<stop offset="1" stop-color="#603B17"/>
</linearGradient>
</defs>
</svg>
