<svg width="413" height="207" viewBox="0 0 413 207" fill="none" xmlns="http://www.w3.org/2000/svg">
<path d="M223.52 121L221.92 120.17C216.45 117.41 210.92 115.32 204.83 114.76V61.2901H231.37C239.66 61.2901 241.37 63.7801 241.37 74.5601H242.2V47.1901H241.37C241.37 57.9701 239.71 60.4601 231.37 60.4601H204.83V2.40005H241.32C249.62 2.40005 251.32 4.89006 251.32 14.8401H252.14V1.57007H178.33V2.40005C180.33 2.40005 182.08 2.46005 183.56 2.61005C184.442 2.69243 185.318 2.83614 186.18 3.04007C186.519 3.11664 186.853 3.21346 187.18 3.33005L187.37 3.40005C187.62 3.50005 187.86 3.60005 188.09 3.71005L188.27 3.80005C188.502 3.92597 188.726 4.06626 188.94 4.22006H189.03C189.26 4.39739 189.478 4.59122 189.68 4.80005V4.85007C189.853 5.03326 190.01 5.23062 190.15 5.44006C190.199 5.50282 190.243 5.56976 190.28 5.64008C190.392 5.81672 190.492 6.00043 190.58 6.19006L190.7 6.44006C190.794 6.64803 190.874 6.86179 190.94 7.08005C190.971 7.15509 190.998 7.2319 191.02 7.31006C191.11 7.62006 191.19 7.94006 191.26 8.31006L151.37 69.0001L150.53 68.61C147.674 67.3406 144.746 66.2421 141.76 65.3201C138.833 64.4111 135.815 63.8243 132.76 63.5701C129.897 63.2905 127.011 63.3442 124.16 63.7301C121.628 64.0479 119.13 64.6002 116.7 65.3801C114.652 66.0201 112.648 66.7917 110.7 67.6901C109 68.5201 107.53 69.2901 106.37 69.9501C104.09 71.3701 102.81 72.2101 102.81 72.2101C102.81 72.2101 104.26 71.7201 106.81 70.7801C108.08 70.3501 109.63 69.9001 111.36 69.3501C113.09 68.8001 115.13 68.3501 117.36 67.9701C119.702 67.5371 122.071 67.2697 124.45 67.1701C127.075 67.0907 129.702 67.2413 132.3 67.6201C135.079 68.0358 137.813 68.7053 140.47 69.6201C143.27 70.5364 146.012 71.6217 148.68 72.8701L148.83 72.9301L119.71 117.22C117.98 119.55 112.17 120.17 105.63 120.17V121H131.68V120.17C125.68 120.17 122.32 119.64 120.45 117.79L149.69 73.3201L156.96 76.5901C159.702 77.8415 162.521 78.917 165.4 79.8101C168.137 80.6905 170.965 81.2575 173.83 81.5001C175.16 81.6219 176.495 81.6653 177.83 81.6301C179.072 81.569 180.311 81.4421 181.54 81.2501C183.671 80.9242 185.762 80.3779 187.78 79.6201C189.092 79.1645 190.369 78.613 191.6 77.9701V110.22C191.726 112.312 191.385 114.406 190.6 116.35C187.468 117.319 184.432 118.574 181.53 120.1L179.86 121C179.47 121.21 179.09 121.41 178.71 121.64C179.26 121.41 179.8 121.2 180.34 121C181.34 120.62 182.34 120.28 183.34 120C184.88 119.531 186.446 119.154 188.03 118.87C193.632 117.86 199.398 118.255 204.81 120.02L205.35 120.19C206.12 120.45 206.89 120.73 207.65 121.02C231.24 130.25 249.65 158.39 309.15 130.02C264.53 151.32 244.32 132 223.52 121ZM187.27 77.9101C186.328 78.1208 185.372 78.2644 184.41 78.3401C183.366 78.4884 182.314 78.5686 181.26 78.58C178.915 78.6504 176.569 78.4762 174.26 78.0601C171.678 77.5769 169.145 76.8641 166.69 75.9301C164.1 74.9901 161.5 73.7501 158.8 72.5101L152.24 69.4101L191.47 9.75006C191.47 9.81006 191.47 9.87005 191.47 9.93005C191.47 10.2601 191.53 10.6001 191.54 10.9301C191.55 11.2601 191.54 11.84 191.54 12.33V76.8401C190.34 77.2001 188.93 77.6201 187.27 77.9101Z" fill="black"/>
<path d="M27.08 205.92V204.81H27.48C29.25 204.81 30.36 204.52 30.78 203.95C30.924 203.668 30.999 203.356 30.999 203.04C30.999 202.724 30.924 202.412 30.78 202.13L27.17 191.31H10.33L7.06995 201.68C6.69995 202.88 6.66998 203.6 6.97998 204.02C7.28998 204.44 8.46003 204.81 10.41 204.81H10.8101V205.92H0V204.81H0.400024C4.33002 204.81 5.12003 204.34 6.03003 201.44L17.6899 164.3C17.7684 164.132 17.8041 163.947 17.7936 163.762C17.7831 163.577 17.7269 163.398 17.63 163.24C17.35 162.85 16.51 162.39 14.09 162.39H13.6899V161.29H22.91L36.29 201.43C37.08 203.81 38.07 204.81 42.1 204.81H42.5V205.92H27.08ZM26.8199 190.2L18.52 165.28L10.6899 190.2H26.8199Z" fill="black"/>
<path d="M42.09 205.21V205.52H27.48V205.21C31.17 205.21 31.8201 204.02 31.1801 202L27.48 190.91H10.05L6.70996 201.56C5.87996 204.22 6.48005 205.21 10.4301 205.21V205.52H0.430054V205.21C4.38005 205.21 5.43005 204.72 6.43005 201.56L18.08 164.42C18.58 162.89 17.52 161.99 14.08 161.99V161.69H22.61L35.9 201.56C36.81 204.29 38.13 205.21 42.09 205.21ZM27.38 190.6L18.5 164L10.15 190.62L27.38 190.6Z" fill="black"/>
<path d="M101.19 205.92V204.81H101.59C103.37 204.81 104.48 204.52 104.89 203.95C105.034 203.668 105.109 203.356 105.109 203.04C105.109 202.724 105.034 202.412 104.89 202.13L101.29 191.31H84.4399L81.1899 201.68C80.8099 202.88 80.78 203.6 81.09 204.02C81.4 204.44 82.58 204.81 84.53 204.81H84.9301V205.92H74.09V204.81H74.49C78.42 204.81 79.21 204.34 80.12 201.44L91.78 164.3C91.8545 164.131 91.8869 163.946 91.8748 163.761C91.8626 163.577 91.806 163.398 91.71 163.24C91.43 162.85 90.5901 162.39 88.1801 162.39H87.78V161.29H97L110.38 201.43C111.18 203.82 112.16 204.81 116.19 204.81H116.59V205.92H101.19ZM100.94 190.2L92.63 165.28L84.8101 190.2H100.94Z" fill="black"/>
<path d="M116.2 205.21V205.52H101.59V205.21C105.29 205.21 105.94 204.02 105.29 202L101.59 190.91H84.17L80.83 201.56C79.99 204.22 80.59 205.21 84.55 205.21V205.52H74.55V205.21C78.55 205.21 79.55 204.72 80.55 201.56L92.21 164.42C92.7 162.89 91.65 161.99 88.21 161.99V161.69H96.74L110 201.56C110.92 204.29 112.25 205.21 116.2 205.21ZM101.49 190.6L92.62 164L84.26 190.62L101.49 190.6Z" fill="black"/>
<path d="M61.53 206.83C58.4395 206.894 55.3673 206.341 52.4934 205.202C49.6195 204.064 47.0016 202.364 44.7932 200.201C42.5849 198.038 40.8304 195.456 39.6327 192.606C38.435 189.756 37.818 186.696 37.818 183.605C37.818 180.514 38.435 177.454 39.6327 174.604C40.8304 171.754 42.5849 169.172 44.7932 167.009C47.0016 164.846 49.6195 163.146 52.4934 162.008C55.3673 160.869 58.4395 160.316 61.53 160.38C68.97 160.38 73.1 165.79 74.53 168.12C74.59 168.22 74.6499 168.29 74.6899 168.35C74.8068 167.656 74.8537 166.953 74.83 166.25V165.85H75.9301V176.39H74.83V176C74.83 172 74.15 169.48 72.49 167.2C71.2325 165.452 69.5817 164.025 67.6709 163.033C65.7601 162.041 63.6428 161.513 61.49 161.49C51.96 161.49 44.2 171.41 44.2 183.61C44.2 195.81 51.96 205.73 61.49 205.73C65.0357 205.814 68.4811 204.548 71.13 202.19V192.44C71.13 189.67 70.47 189.19 66.66 189.19H66.26V188.08H81.67V189.19H81.27C77.47 189.19 76.8 189.67 76.8 192.44V202.39L76.16 201.88C75.8196 201.608 75.3954 201.464 74.96 201.47C73.7491 201.629 72.6317 202.206 71.8 203.1C68.9589 205.576 65.2978 206.905 61.53 206.83Z" fill="black"/>
<path d="M81.3101 188.47V188.78C77.3101 188.78 76.4399 189.38 76.4399 192.43V201.56C74.8699 200.33 72.9199 201.56 71.5699 202.79C68.8027 205.2 65.2391 206.498 61.5699 206.43C58.5323 206.494 55.5127 205.95 52.6877 204.832C49.8628 203.713 47.2895 202.042 45.1188 199.916C42.948 197.791 41.2234 195.253 40.046 192.452C38.8686 189.651 38.2622 186.643 38.2622 183.605C38.2622 180.567 38.8686 177.559 40.046 174.758C41.2234 171.957 42.948 169.42 45.1188 167.294C47.2895 165.168 49.8628 163.497 52.6877 162.378C55.5127 161.26 58.5323 160.716 61.5699 160.78C68.9099 160.78 72.86 166.1 74.23 168.33C74.79 169.17 75.23 169.55 75.23 166.25H75.53V176H75.23C75.23 172.06 74.5799 169.39 72.8199 167C71.5254 165.209 69.8307 163.745 67.8707 162.724C65.9107 161.703 63.7396 161.154 61.53 161.12C51.61 161.12 43.84 171.47 43.84 183.64C43.84 195.81 51.61 206.16 61.53 206.16C65.2204 206.225 68.7967 204.88 71.53 202.4V192.47C71.53 189.42 70.62 188.82 66.66 188.82V188.51L81.3101 188.47Z" fill="black"/>
<path d="M153.18 205.92C146.66 205.92 142.43 202.23 140.61 194.92C138.61 187.06 135.44 184.26 133.09 184.26H127.09V201.51C127.09 204.28 127.76 204.77 131.56 204.77H131.96V205.87H116.55V204.77H116.95C120.75 204.77 121.42 204.28 121.42 201.51V165.64C121.42 162.88 120.75 162.39 116.95 162.39H116.55V161.28H133.08C139.23 161.28 148.39 164.43 148.39 173.09C148.39 178.5 143.77 182.8 136.94 183.98C139.228 184.811 141.267 186.208 142.869 188.041C144.471 189.873 145.582 192.082 146.1 194.46C147.38 199.61 150.1 204.81 153.17 204.81H153.57V205.92H153.18ZM133.09 183.2C137.87 183.2 142.73 178.1 142.73 173.09C142.73 165 136.23 162.39 133.09 162.39H127.09V183.2H133.09Z" fill="black"/>
<path d="M153.18 205.21V205.52C149.81 205.52 143.44 204.6 141 194.86C139 186.7 135.6 183.86 133.09 183.86H126.7V201.51C126.7 204.56 127.61 205.17 131.57 205.17V205.47H117V205.17C121 205.17 121.87 204.56 121.87 201.51V165.64C121.87 162.64 120.95 161.99 117 161.99V161.68H133.13C139.52 161.68 148.04 165.03 148.04 173.09C148.04 178.87 142.59 183.2 135.04 183.82C137.664 184.403 140.068 185.723 141.967 187.626C143.866 189.529 145.182 191.935 145.76 194.56C146.93 199.43 149.61 205.21 153.18 205.21ZM133.09 183.6C138.26 183.6 143.09 178.12 143.09 173.09C143.09 165.03 136.7 161.99 133.09 161.99H126.7V183.6H133.09Z" fill="black"/>
<path d="M175.4 205.92V204.81H175.8C179.6 204.81 180.27 204.32 180.27 201.56V165.64C180.27 162.88 179.6 162.39 175.8 162.39H175.4V161.29H203.29V167H202.18V166.6C202.18 163.09 201.67 162.43 198.93 162.43H185.93V182.9H195.27C198.04 182.9 198.52 182.23 198.52 178.43V178H199.63V188.84H198.52V188.44C198.52 184.64 198.04 183.97 195.27 183.97H185.93V204.78H199.84C202.57 204.78 203.09 204.12 203.09 200.61V200.21H204.19V205.89L175.4 205.92Z" fill="black"/>
<path d="M203.8 200.64V205.52H175.8V205.21C179.8 205.21 180.67 204.6 180.67 201.56V165.64C180.67 162.64 179.76 161.99 175.8 161.99V161.69H202.89V166.56H202.58C202.58 162.9 201.98 161.99 198.93 161.99H185.54V183.3H195.28C198.28 183.3 198.93 182.38 198.93 178.43H199.24V188.43H198.93C198.93 184.43 198.33 183.56 195.28 183.56H185.54V205.17H199.85C202.85 205.17 203.5 204.26 203.5 200.6L203.8 200.64Z" fill="black"/>
<path d="M220 206.83C214.88 206.83 210.55 204.77 208.12 201.17L208 201C207.857 200.77 207.7 200.55 207.53 200.34C207.397 201.045 207.347 201.763 207.38 202.48V202.88H206.27V192.33H207.38V192.73C207.38 196.67 208.12 199.37 209.77 201.47C212.01 204.13 215.85 205.72 220.03 205.72C226.47 205.72 230.62 201.58 230.62 195.17C230.62 188.76 225.14 186.25 219.33 183.51C213.52 180.77 207.75 178.05 207.49 171.44C207.424 170.137 207.629 168.835 208.09 167.615C208.551 166.395 209.259 165.284 210.17 164.35C211.566 163.016 213.215 161.974 215.021 161.287C216.826 160.6 218.75 160.282 220.68 160.35C222.544 160.307 224.388 160.745 226.034 161.62C227.68 162.496 229.074 163.78 230.08 165.35C230.194 165.536 230.321 165.713 230.46 165.88C230.602 165.193 230.656 164.491 230.62 163.79V163.39H231.73V174H230.62V173.6C230.62 169.71 229.79 166.6 228.27 164.9C227.36 163.856 226.241 163.016 224.985 162.434C223.729 161.851 222.364 161.54 220.98 161.52C219.753 161.466 218.527 161.667 217.381 162.109C216.235 162.551 215.193 163.226 214.32 164.09C213.595 164.869 213.037 165.788 212.681 166.791C212.325 167.793 212.179 168.858 212.25 169.92C212.5 174.63 217.46 176.83 222.71 179.15C229.21 182.02 236.59 185.28 236.3 194.1C236.01 202.92 227.63 206.83 220 206.83Z" fill="black"/>
<path d="M235.89 194C235.6 202.44 227.6 206.39 219.99 206.39C214.79 206.39 210.65 204.18 208.44 200.9C207.69 199.77 206.97 198.46 206.97 202.42H206.66V192.68H206.97C206.97 196.61 207.69 199.44 209.44 201.68C211.99 204.68 216.12 206.08 220.02 206.08C226.7 206.08 231.02 201.66 231.02 195.13C231.02 182.08 208.4 184.23 207.89 171.39C207.63 164.79 213.68 160.74 220.68 160.74C222.478 160.692 224.257 161.111 225.845 161.956C227.433 162.801 228.775 164.042 229.74 165.56C230.32 166.45 231.02 167.36 231.02 163.78H231.33V173.52H231C231 169.84 230.28 166.52 228.55 164.52C227.603 163.434 226.438 162.56 225.13 161.955C223.822 161.35 222.401 161.028 220.96 161.01C214.87 161.01 211.58 165.23 211.83 169.83C212.42 180.88 236.4 178.46 235.89 194Z" fill="black"/>
<path d="M252.2 206.83C247.2 206.83 242.71 204.71 240.32 201.17L240.2 200.99C240.07 200.79 239.87 200.5 239.73 200.33C239.597 201.035 239.547 201.753 239.58 202.47V202.87H238.47V192.33H239.58V192.73C239.58 196.67 240.31 199.37 241.96 201.47C244.2 204.13 248.04 205.72 252.23 205.72C258.66 205.72 262.82 201.58 262.82 195.17C262.82 188.76 257.33 186.25 251.53 183.51C245.73 180.77 239.95 178.05 239.69 171.44C239.622 170.138 239.824 168.836 240.283 167.616C240.743 166.396 241.45 165.284 242.36 164.35C243.758 163.018 245.407 161.977 247.212 161.29C249.017 160.604 250.94 160.284 252.87 160.35C254.734 160.307 256.578 160.745 258.224 161.62C259.87 162.496 261.264 163.78 262.27 165.35C262.384 165.536 262.511 165.713 262.65 165.88C262.798 165.194 262.855 164.491 262.82 163.79V163.39H263.92V174H262.82V173.6C262.82 169.71 261.98 166.6 260.47 164.9C259.559 163.857 258.44 163.018 257.184 162.435C255.928 161.853 254.564 161.541 253.18 161.52C251.953 161.464 250.727 161.664 249.58 162.106C248.434 162.549 247.392 163.224 246.52 164.09C245.794 164.868 245.235 165.787 244.877 166.79C244.519 167.793 244.37 168.858 244.44 169.92C244.7 174.63 249.65 176.83 254.9 179.15C261.41 182.02 268.78 185.28 268.49 194.1C268.2 202.92 259.84 206.83 252.2 206.83Z" fill="black"/>
<path d="M268.09 194C267.81 202.44 259.81 206.39 252.2 206.39C246.99 206.39 242.86 204.18 240.64 200.9C239.88 199.77 239.17 198.46 239.17 202.42H238.86V192.68H239.17C239.17 196.61 239.89 199.44 241.64 201.68C244.18 204.68 248.31 206.08 252.22 206.08C258.89 206.08 263.22 201.66 263.22 195.13C263.22 182.08 240.6 184.23 240.09 171.39C239.83 164.79 245.87 160.74 252.87 160.74C254.669 160.694 256.45 161.113 258.039 161.958C259.628 162.802 260.972 164.043 261.94 165.56C262.51 166.45 263.22 167.36 263.22 163.78H263.52V173.52H263.22C263.22 169.84 262.49 166.52 260.77 164.52C259.823 163.434 258.657 162.561 257.349 161.956C256.041 161.351 254.621 161.029 253.18 161.01C247.09 161.01 243.8 165.23 244.04 169.83C244.63 180.88 268.61 178.46 268.09 194Z" fill="black"/>
<path d="M269.33 205.92V204.81H269.74C273.54 204.81 274.2 204.32 274.2 201.56V165.64C274.2 162.88 273.54 162.39 269.74 162.39H269.33V161.29H297.22V167H296.12V166.6C296.12 163.09 295.6 162.43 292.87 162.43H279.87V182.9H289.21C291.98 182.9 292.46 182.23 292.46 178.43V178H293.57V188.84H292.46V188.44C292.46 184.64 291.98 183.97 289.21 183.97H279.87V204.78H293.78C296.51 204.78 297.03 204.12 297.03 200.61V200.21H298.13V205.89L269.33 205.92Z" fill="black"/>
<path d="M297.73 200.64V205.52H269.73V205.21C273.73 205.21 274.59 204.6 274.59 201.56V165.64C274.59 162.64 273.68 161.99 269.73 161.99V161.69H296.81V166.56H296.51C296.51 162.9 295.9 161.99 292.86 161.99H279.46V183.3H289.2C292.2 183.3 292.86 182.38 292.86 178.43H293.16V188.43H292.86C292.86 184.43 292.25 183.56 289.2 183.56H279.46V205.17H293.77C296.77 205.17 297.42 204.26 297.42 200.6L297.73 200.64Z" fill="black"/>
<path d="M337.46 205.92L305.8 165.48V201.56C305.8 204.32 306.46 204.81 310.27 204.81H310.67V205.92H299.82V204.81H300.22C304.02 204.81 304.69 204.32 304.69 201.56V165.34C304.69 162.98 304.17 162.39 300.22 162.39H299.82V161.29H308.94L337.26 197.59V165.64C337.26 162.88 336.59 162.39 332.79 162.39H332.39V161.29H343.23V162.39H342.83C339.03 162.39 338.36 162.88 338.36 165.64V205.92H337.46Z" fill="black"/>
<path d="M342.83 161.69V161.99C338.83 161.99 337.96 162.6 337.96 165.64V205.52H337.66L305.4 164.32V201.56C305.4 204.56 306.31 205.21 310.27 205.21V205.52H300.27V205.21C304.27 205.21 305.14 204.6 305.14 201.56V165.34C305.14 162.6 304.23 161.99 300.27 161.99V161.69H308.79L337.71 198.75V165.64C337.71 162.64 336.8 161.99 332.84 161.99V161.69H342.83Z" fill="black"/>
<path d="M367.06 206.83C363.97 206.894 360.897 206.341 358.023 205.202C355.149 204.064 352.532 202.364 350.323 200.201C348.115 198.038 346.36 195.456 345.163 192.606C343.965 189.756 343.348 186.696 343.348 183.605C343.348 180.514 343.965 177.454 345.163 174.604C346.36 171.754 348.115 169.172 350.323 167.009C352.532 164.846 355.149 163.146 358.023 162.008C360.897 160.869 363.97 160.316 367.06 160.38C369.454 160.431 371.802 161.046 373.913 162.175C376.025 163.305 377.839 164.917 379.21 166.88C379.31 167 379.81 167.73 380.08 168.15C380.121 168.224 380.168 168.294 380.22 168.36C380.33 167.662 380.374 166.956 380.35 166.25V165.85H381.46V176.39H380.35V176C380.35 172.05 379.64 169.34 378.03 167.21C376.78 165.454 375.131 164.02 373.219 163.026C371.306 162.031 369.185 161.505 367.03 161.49C357.52 161.49 349.78 171.41 349.78 183.61C349.78 195.81 357.52 205.73 367.03 205.73C373.54 205.73 378.59 202.04 381.27 195.33L381.37 195.08H382.51L382.32 195.62C379.72 202.74 374.15 206.83 367.06 206.83Z" fill="black"/>
<path d="M382 195.47C379.87 201.25 375.09 206.47 367.09 206.47C364.052 206.534 361.033 205.99 358.208 204.872C355.383 203.753 352.81 202.082 350.639 199.956C348.468 197.83 346.743 195.293 345.566 192.492C344.389 189.691 343.782 186.683 343.782 183.645C343.782 180.607 344.389 177.599 345.566 174.798C346.743 171.997 348.468 169.459 350.639 167.334C352.81 165.208 355.383 163.537 358.208 162.418C361.033 161.3 364.052 160.756 367.09 160.82C369.423 160.866 371.711 161.464 373.768 162.566C375.824 163.669 377.59 165.243 378.92 167.16C379.01 167.28 379.51 167.99 379.77 168.41C380.33 169.24 380.77 169.54 380.77 166.29H381.08V176H380.77C380.77 172.06 380.06 169.21 378.36 167C377.074 165.203 375.382 163.734 373.422 162.712C371.463 161.691 369.29 161.145 367.08 161.12C357.16 161.12 349.43 171.47 349.43 183.64C349.43 195.81 357.16 206.16 367.08 206.16C373.32 206.16 378.75 202.88 381.69 195.51L382 195.47Z" fill="black"/>
<path d="M383.21 205.92V204.81H383.61C387.41 204.81 388.08 204.32 388.08 201.56V165.64C388.08 162.88 387.41 162.39 383.61 162.39H383.21V161.29H411.1V167H410V166.6C410 163.09 409.49 162.43 406.75 162.43H393.75V182.9H403.09C405.85 182.9 406.34 182.23 406.34 178.43V178H407.45V188.84H406.34V188.44C406.34 184.64 405.85 183.97 403.09 183.97H393.75V204.78H407.65C410.39 204.78 410.91 204.12 410.91 200.61V200.21H412.01V205.89L383.21 205.92Z" fill="black"/>
<path d="M411.61 200.64V205.52H383.61V205.21C387.61 205.21 388.48 204.6 388.48 201.56V165.64C388.48 162.64 387.56 161.99 383.61 161.99V161.69H410.7V166.56H410.39C410.39 162.9 409.78 161.99 406.74 161.99H393.35V183.3H403.09C406.09 183.3 406.74 182.38 406.74 178.43H407.04V188.43H406.74C406.74 184.43 406.13 183.56 403.09 183.56H393.35V205.17H407.65C410.65 205.17 411.31 204.26 411.31 200.6L411.61 200.64Z" fill="black"/>
<path d="M177.59 0.869995V3.10001H178.29C180.012 3.0836 181.735 3.15368 183.45 3.31C184.306 3.38726 185.155 3.52766 185.99 3.73001C186.32 3.81001 186.62 3.90001 186.99 4.01001L187.13 4.06C187.36 4.15 187.58 4.25 187.76 4.34L187.95 4.42999C188.142 4.53355 188.329 4.64704 188.51 4.76999L188.61 4.84C188.804 4.97995 188.985 5.13727 189.15 5.31L189.22 5.39001C189.367 5.55103 189.504 5.72136 189.63 5.89999L189.74 6.07001C189.84 6.23001 189.92 6.38999 190 6.54999L190.11 6.76999C190.19 6.95999 190.26 7.15001 190.36 7.45001V7.57999C190.42 7.76999 190.47 7.98001 190.52 8.20001L119.12 116.8C117.8 118.57 113.25 119.47 105.6 119.47H104.9V121.7H132.35V119.47H131.65C126.02 119.47 123.02 118.95 121.34 117.66L190.87 11.92V67.2V110.2C190.978 112.084 190.71 113.971 190.08 115.75C187.015 116.728 184.041 117.969 181.19 119.46C180.63 119.75 180.06 120.06 179.5 120.37L179.14 120.56L178.34 121.01L178.95 122.26L180.57 121.64C181.57 121.25 182.57 120.92 183.57 120.64C185.086 120.176 186.629 119.806 188.19 119.53C195.51 118 205.42 120.17 205.54 120.22V62H231.38C239.16 62 240.63 64 240.63 74.57V75.27H242.86V46.49H240.63V47.19C240.63 57.76 239.16 59.76 231.38 59.76H205.54V3.10001H241.33C249.03 3.10001 250.59 5.1 250.59 14.84V15.54H252.81V0.869995H177.59Z" fill="black"/>
</svg>
