<svg width="221" height="221" viewBox="0 0 221 221" fill="none" xmlns="http://www.w3.org/2000/svg">
<g clip-path="url(#clip0_11_334)">
<path d="M13.8125 69.0625H151.894L151.928 100.141C151.928 104.261 154.368 107.992 158.148 109.637C161.927 111.282 166.319 110.534 169.341 107.735L217.685 62.8443C222.105 58.7437 222.105 51.7554 217.685 47.6548L169.341 2.7642C166.323 -0.0345613 161.93 -0.782594 158.148 0.861525C154.368 2.50867 151.928 6.23977 151.928 10.3576L151.894 41.4375H13.8125C6.17678 41.4375 0 47.6099 0 54.8615C0 62.1131 6.17678 69.0625 13.8125 69.0625ZM207.188 151.937H69.1057L69.0625 120.471C69.0625 116.35 66.6229 112.619 62.8426 110.975C59.0916 109.723 54.6889 110.457 51.6674 113.262L3.32363 158.153C-1.09637 162.254 -1.09637 169.242 3.32363 173.343L51.6674 218.233C54.6854 221.032 59.0787 221.781 62.8598 220.135C66.6453 218.496 69.0625 214.741 69.0625 210.641L69.1057 179.562H207.188C214.823 179.562 221 173.386 221 165.75C221 158.114 214.828 151.937 207.188 151.937Z" fill="#8E8E8E"/>
</g>
<defs>
<clipPath id="clip0_11_334">
<rect width="221" height="221" fill="white"/>
</clipPath>
</defs>
</svg>
