<svg width="221" height="221" viewBox="0 0 221 221" fill="none" xmlns="http://www.w3.org/2000/svg">
<g clip-path="url(#clip0_11_336)">
<path d="M110.5 -0.00341794C112.529 -0.00354743 114.471 0.435043 116.284 1.25732L197.562 35.7355C207.058 39.7627 214.18 49.1207 214.094 60.0412C213.878 103.248 196.267 181.591 121.895 217.202C114.687 220.611 106.313 220.611 99.1047 217.202C24.7115 181.591 7.1178 103.248 6.51782 60.0412C6.85019 49.1207 13.9507 39.7627 23.4381 35.7355L104.759 1.25732C106.529 0.435043 108.514 -0.00354743 110.5 -0.00341794ZM110.5 191.994C169.678 163.16 186.08 99.3205 186.469 61.0339L110.5 28.8206V191.994Z" fill="#8E8E8E"/>
</g>
<defs>
<clipPath id="clip0_11_336">
<rect width="221" height="221" fill="white"/>
</clipPath>
</defs>
</svg>
