<svg width="278" height="222" viewBox="0 0 278 222" fill="none" xmlns="http://www.w3.org/2000/svg">
<g clip-path="url(#clip0_11_338)">
<path d="M159.85 0.399902C171.361 0.399902 180.7 9.67586 180.7 21.1187V41.8374H202.723C210.107 41.8374 216.797 44.7294 222.4 49.9091L255.977 83.2749C261.19 88.4546 264.1 95.4903 264.1 102.828V152.337C271.788 152.337 278 158.51 278 166.15C278 173.79 271.788 179.962 264.1 179.962H250.2C250.2 202.839 231.522 221.4 208.5 221.4C185.087 221.4 166.8 202.839 166.8 179.962H111.2C111.2 202.839 92.5219 221.4 69.5 221.4C46.0872 221.4 27.8 202.839 27.8 179.962H20.85C9.33472 179.962 0 170.682 0 159.244V21.1187C0 9.67586 9.33472 0.399902 20.85 0.399902H159.85ZM180.7 69.4624V110.9H236.3V102.828L202.723 69.4624H180.7ZM69.5 159.244C57.9891 159.244 48.65 168.524 48.65 179.962C48.65 191.401 57.9891 200.681 69.5 200.681C81.0109 200.681 90.35 191.401 90.35 179.962C90.35 168.524 81.0109 159.244 69.5 159.244ZM208.5 200.681C220.011 200.681 229.35 191.401 229.35 179.962C229.35 168.524 220.011 159.244 208.5 159.244C196.989 159.244 187.65 168.524 187.65 179.962C187.65 191.401 196.989 200.681 208.5 200.681Z" fill="#8E8E8E"/>
</g>
<defs>
<clipPath id="clip0_11_338">
<rect width="278" height="221" fill="white" transform="translate(0 0.399902)"/>
</clipPath>
</defs>
</svg>
